<svg width="55" height="28" viewBox="0 0 55 28" fill="none" xmlns="http://www.w3.org/2000/svg">
<rect width="55" height="28" fill="#F4F4F4"/>
<path d="M13.251 9.77032C13.251 11.0263 13.249 12.2826 13.2537 13.5386C13.2543 13.677 13.2221 13.7248 13.086 13.7215C12.7115 13.7121 12.3366 13.7139 11.962 13.7206C11.8435 13.723 11.8151 13.6782 11.8151 13.5592C11.8182 11.7632 11.8182 9.96743 11.8146 8.1714C11.8143 8.04766 11.8485 8.01525 11.9631 8.01613C12.6245 8.02173 13.286 8.02084 13.9474 8.01613C14.0512 8.01525 14.1015 8.04824 14.1376 8.1549C14.5024 9.23263 14.8726 10.3086 15.2413 11.3852C15.2552 11.4255 15.2702 11.4656 15.2974 11.5401C15.3921 11.2647 15.4768 11.0201 15.5601 10.775C15.8605 9.89141 16.1596 9.00695 16.4634 8.12455C16.4781 8.08154 16.533 8.02438 16.5697 8.02409C17.2861 8.01819 18.0028 8.01967 18.7347 8.01967C18.7375 8.07918 18.7422 8.13103 18.7422 8.18289C18.7425 9.9689 18.7411 11.7552 18.7453 13.5412C18.7455 13.6823 18.7092 13.7257 18.5753 13.7224C18.2055 13.7133 17.8353 13.7148 17.4652 13.7218C17.3472 13.7242 17.305 13.6927 17.3055 13.5589C17.31 12.2979 17.3083 11.0369 17.293 9.76944C17.2008 10.0364 17.1087 10.303 17.0162 10.5699C16.6661 11.5811 16.3145 12.5916 15.9669 13.6037C15.9361 13.6935 15.8891 13.7212 15.803 13.7204C15.4701 13.7165 15.1366 13.7112 14.804 13.723C14.6729 13.7277 14.6191 13.6776 14.5769 13.5536C14.2439 12.5781 13.9054 11.6047 13.5686 10.6306C13.4689 10.3422 13.3698 10.0538 13.2704 9.76502C13.2643 9.76649 13.2576 9.76856 13.251 9.77032Z" fill="black"/>
<path d="M45.188 10.1898C45.188 11.3082 45.1883 12.3824 45.1877 13.4569C45.1875 13.7609 45.203 13.7165 44.9434 13.7179C44.5918 13.72 44.2403 13.7144 43.8891 13.7209C43.7727 13.7229 43.7275 13.6946 43.728 13.5585C43.7322 11.7728 43.7325 9.9871 43.7272 8.20138C43.7266 8.04818 43.7705 8.01341 43.9077 8.01577C44.4208 8.02431 44.9342 8.01636 45.4476 8.02372C45.5032 8.02461 45.5787 8.06792 45.6098 8.11682C46.2762 9.1648 46.9379 10.2166 47.6004 11.2672C47.6257 11.307 47.6512 11.3465 47.6993 11.421C47.6993 10.2676 47.6993 9.15331 47.6993 8.0193C47.8431 8.0193 47.9708 8.0193 48.0986 8.0193C48.3993 8.0193 48.7 8.02755 49.0002 8.01547C49.1443 8.00958 49.1554 8.08176 49.1551 8.20079C49.1529 9.39284 49.1534 10.5852 49.1534 11.7772C49.1534 12.3659 49.1507 12.9546 49.1559 13.5432C49.157 13.6731 49.1265 13.7241 48.9935 13.7218C48.5081 13.7135 48.0222 13.7147 47.5368 13.7203C47.436 13.7215 47.3783 13.6861 47.3241 13.5995C46.6447 12.5076 45.9622 11.4178 45.2802 10.3274C45.2577 10.2917 45.2333 10.2576 45.188 10.1898Z" fill="black"/>
<path d="M34.3127 20.9857C34.2505 20.9913 34.2199 20.996 34.1897 20.996C33.6718 20.9963 33.1539 20.9996 32.6361 20.9916C32.5686 20.9907 32.4823 20.9518 32.4384 20.8988C31.9666 20.3343 31.4982 19.7666 31.0373 19.192C30.9359 19.0656 30.8346 18.9911 30.6735 19.0156C30.5885 19.0285 30.5005 19.0179 30.3967 19.0179C30.3967 19.0913 30.3967 19.1484 30.3967 19.2059C30.3967 19.7453 30.3933 20.2851 30.3989 20.8246C30.4003 20.9571 30.3653 21.0019 30.2345 20.9993C29.8097 20.9904 29.3846 20.996 28.9375 20.996C28.9375 20.9353 28.9375 20.8838 28.9375 20.8319C28.9375 19.0465 28.9389 17.2608 28.9345 15.4754C28.9342 15.3363 28.9656 15.2921 29.1022 15.293C30.0962 15.2992 31.0906 15.2942 32.0846 15.2983C32.4592 15.2998 32.8191 15.382 33.1453 15.5867C33.6637 15.912 33.9264 16.3999 33.9547 17.0354C33.985 17.716 33.7512 18.2654 33.2145 18.6446C33.0223 18.7805 32.7957 18.8615 32.575 18.9723C33.1417 19.629 33.7182 20.2969 34.3127 20.9857ZM30.4056 16.6559C30.4056 17.0068 30.4056 17.3527 30.4056 17.718C30.533 17.718 30.6518 17.7186 30.7704 17.718C31.1861 17.7163 31.6018 17.7225 32.0172 17.7086C32.2796 17.7001 32.4753 17.4862 32.4922 17.2263C32.5106 16.9429 32.3601 16.6792 32.0946 16.665C31.5354 16.635 30.9734 16.6559 30.4056 16.6559Z" fill="black"/>
<path d="M25.2556 8.02556C25.3075 8.0232 25.3486 8.01966 25.3895 8.01966C26.3974 8.01937 27.4054 8.01672 28.4133 8.02084C28.8526 8.02261 29.2694 8.13044 29.6226 8.41888C30.1704 8.86612 30.3523 9.47717 30.2451 10.1807C30.1326 10.9208 29.6973 11.3769 29.0386 11.6097C28.987 11.6279 28.9356 11.6462 28.8678 11.6701C29.4512 12.345 30.0269 13.0112 30.6291 13.7083C30.5422 13.713 30.4908 13.718 30.4392 13.718C29.9444 13.7186 29.4496 13.7159 28.955 13.7203C28.8637 13.7212 28.802 13.6941 28.7415 13.6193C28.2656 13.0321 27.7835 12.4508 27.3087 11.8627C27.2326 11.7688 27.1585 11.7281 27.0388 11.7325C26.7078 11.7452 26.7073 11.7387 26.7073 12.094C26.707 12.5846 26.7051 13.0751 26.7092 13.5657C26.7101 13.6767 26.6837 13.7224 26.5693 13.7206C26.1717 13.7142 25.774 13.7162 25.3764 13.7198C25.285 13.7206 25.2445 13.6956 25.2445 13.5881C25.2467 11.7584 25.2462 9.92883 25.2462 8.09921C25.2465 8.08036 25.2512 8.0615 25.2556 8.02556ZM26.7139 10.432C26.7681 10.435 26.8089 10.4391 26.8495 10.4391C27.2929 10.4394 27.7361 10.4403 28.1795 10.4382C28.2481 10.4379 28.3178 10.4294 28.385 10.415C28.6618 10.3557 28.8101 10.1583 28.8015 9.86607C28.7937 9.60091 28.6163 9.37729 28.3475 9.36551C27.8133 9.34253 27.2776 9.3496 26.7428 9.34488C26.7353 9.34488 26.7278 9.3549 26.7139 9.36521C26.7139 9.71199 26.7139 10.0632 26.7139 10.432Z" fill="black"/>
<path d="M36.147 16.6276C36.147 16.9217 36.147 17.1895 36.147 17.4779C36.2084 17.4779 36.262 17.4779 36.3159 17.4779C37.1994 17.4782 38.0827 17.4811 38.9662 17.4756C39.1012 17.4747 39.154 17.5062 39.1484 17.6618C39.1367 17.9853 39.1381 18.3096 39.1478 18.6331C39.1523 18.7799 39.1015 18.8143 38.9724 18.8134C38.0844 18.8087 37.1961 18.8137 36.3081 18.8075C36.1762 18.8067 36.1265 18.8391 36.1359 18.9849C36.1473 19.1608 36.1459 19.3385 36.1357 19.5144C36.1282 19.6455 36.1704 19.6805 36.292 19.6796C37.1986 19.6743 38.1052 19.6764 39.0118 19.6767C39.2228 19.6767 39.2228 19.677 39.2228 19.8962C39.2228 20.1955 39.2225 20.4949 39.2225 20.7942C39.2223 20.9957 39.2223 20.9966 39.0365 20.9966C37.9172 20.9966 36.7976 20.9966 35.6783 20.9963C35.4054 20.9963 35.1324 20.9966 34.8595 20.996C34.6673 20.9957 34.6665 20.9951 34.6665 20.796C34.6662 19.8538 34.6662 18.9118 34.6662 17.9696C34.6662 17.1356 34.6693 16.3012 34.6637 15.4671C34.6629 15.3286 34.7059 15.2936 34.8309 15.2939C36.237 15.2977 37.6431 15.2986 39.0493 15.293C39.192 15.2924 39.2306 15.336 39.2259 15.4833C39.2156 15.8068 39.2159 16.1312 39.2253 16.4547C39.2292 16.5932 39.1859 16.6297 39.0609 16.6291C38.1635 16.6247 37.2663 16.627 36.3689 16.6273C36.3006 16.6276 36.232 16.6276 36.147 16.6276Z" fill="black"/>
<path d="M21.2713 9.3377C21.2713 9.63586 21.2713 9.90868 21.2713 10.2001C21.3285 10.2001 21.3779 10.2001 21.427 10.2001C22.3012 10.2001 23.175 10.1998 24.0491 10.2007C24.2904 10.2009 24.2679 10.173 24.2687 10.4411C24.2693 10.7207 24.2715 11.0003 24.2682 11.2799C24.2654 11.5182 24.3259 11.5288 24.0402 11.5288C23.1708 11.5288 22.3014 11.5291 21.432 11.5294C21.3821 11.5294 21.3324 11.5294 21.2652 11.5294C21.2652 11.7966 21.2629 12.0503 21.2685 12.3037C21.2691 12.3317 21.3115 12.3726 21.3418 12.3823C21.384 12.3962 21.4332 12.3871 21.4795 12.3871C22.3767 12.3871 23.2738 12.3897 24.171 12.3844C24.3082 12.3835 24.3565 12.4218 24.3515 12.5744C24.3404 12.9077 24.3445 13.2415 24.3501 13.575C24.352 13.684 24.319 13.7196 24.2157 13.7194C22.7868 13.7167 21.3579 13.7158 19.9287 13.7211C19.7799 13.7217 19.7916 13.6339 19.7918 13.5326C19.7921 11.9431 19.7921 10.3536 19.7921 8.76407C19.7921 8.56284 19.7946 8.36161 19.7907 8.16067C19.7888 8.05549 19.8238 8.01631 19.9279 8.0166C21.3568 8.01955 22.7857 8.01955 24.2149 8.0166C24.3176 8.01631 24.3512 8.04842 24.3493 8.15832C24.3434 8.49183 24.3409 8.82564 24.3501 9.15886C24.354 9.29881 24.3168 9.34182 24.1818 9.34094C23.2708 9.33505 22.3597 9.3377 21.4487 9.3377C21.3943 9.3377 21.3401 9.3377 21.2713 9.3377Z" fill="black"/>
<path d="M13.2849 16.6208C13.2849 16.9234 13.2849 17.1912 13.2849 17.4779C13.3459 17.4779 13.3998 17.4779 13.4534 17.4779C14.3411 17.4779 15.2291 17.4808 16.1168 17.475C16.2554 17.4741 16.3031 17.5121 16.2979 17.6641C16.2873 17.9776 16.2948 18.2919 16.2948 18.6057C16.2948 18.8105 16.2951 18.8111 16.1071 18.8111C15.2238 18.8114 14.3408 18.8111 13.4576 18.8111C13.4034 18.8111 13.3493 18.8111 13.279 18.8111C13.279 19.0868 13.2751 19.3455 13.2851 19.6033C13.2862 19.6298 13.3701 19.6737 13.4156 19.674C14.0629 19.6784 14.7104 19.677 15.3577 19.677C15.685 19.677 16.0127 19.677 16.3503 19.677C16.3503 20.1177 16.3503 20.5464 16.3503 20.9966C16.2965 20.9966 16.2429 20.9966 16.1893 20.9966C14.7882 20.9966 13.387 20.9948 11.9862 20.9998C11.8526 21.0004 11.814 20.9609 11.8146 20.8189C11.8187 19.0382 11.8187 17.2578 11.8146 15.4771C11.8143 15.3377 11.8476 15.2939 11.9834 15.2944C13.389 15.2994 14.7948 15.2989 16.2004 15.2947C16.3254 15.2944 16.3676 15.3274 16.364 15.4662C16.3548 15.8433 16.3609 16.2207 16.3609 16.6211C15.3349 16.6208 14.3167 16.6208 13.2849 16.6208Z" fill="black"/>
<path d="M11.5769 13.7024C11.5444 13.7089 11.5231 13.7171 11.5014 13.7171C11.016 13.7177 10.5304 13.7154 10.045 13.7192C9.95505 13.7198 9.92756 13.6665 9.89951 13.5943C9.78123 13.2914 9.65711 12.9909 9.54187 12.6868C9.50966 12.602 9.46912 12.5675 9.38027 12.5678C8.64055 12.571 7.90083 12.5708 7.16112 12.5672C7.07365 12.5669 7.02895 12.5982 6.99674 12.6839C6.88067 12.9932 6.76127 13.3011 6.63521 13.6058C6.61577 13.6529 6.55524 13.7118 6.51275 13.7124C6.02738 13.7192 5.54201 13.7157 5.05664 13.7142C5.04415 13.7142 5.03193 13.7053 5 13.693C5.08136 13.4941 5.15994 13.2979 5.24102 13.1028C5.92659 11.4556 6.61327 9.80894 7.2969 8.16052C7.33938 8.05829 7.38825 8.01321 7.50126 8.01468C8.03273 8.02234 8.56447 8.02028 9.09621 8.01645C9.18562 8.01586 9.23699 8.04032 9.27559 8.13283C10.0286 9.95184 10.7847 11.7694 11.5397 13.5872C11.5542 13.6217 11.5628 13.6582 11.5769 13.7024ZM8.26847 9.45775C8.02495 10.0753 7.78977 10.6713 7.55125 11.2753C8.03939 11.2753 8.50699 11.2753 8.98625 11.2753C8.74551 10.666 8.51116 10.0723 8.26847 9.45775Z" fill="black"/>
<path d="M36.9075 13.7022C36.9988 13.4789 37.0852 13.265 37.1735 13.0523C37.8402 11.4495 38.5096 9.84796 39.1711 8.24255C39.2391 8.07756 39.3135 8.00714 39.4937 8.01304C39.9974 8.02924 40.5017 8.02158 41.0056 8.01657C41.1036 8.01569 41.152 8.05075 41.1911 8.14562C41.8611 9.7631 42.5345 11.3791 43.2073 12.9957C43.2892 13.1925 43.3711 13.3896 43.4522 13.5867C43.4661 13.6209 43.4755 13.6572 43.4925 13.7093C43.4333 13.7128 43.3889 13.7178 43.3445 13.7178C42.8957 13.7184 42.4473 13.7149 41.9989 13.7211C41.8931 13.7226 41.8445 13.6828 41.8062 13.5811C41.6918 13.2765 41.5637 12.9777 41.448 12.6737C41.4163 12.5906 41.3722 12.5679 41.2925 12.5682C40.548 12.5712 39.8033 12.5732 39.0589 12.5676C38.96 12.567 38.9328 12.6213 38.9039 12.6958C38.7862 12.999 38.6715 13.3036 38.5466 13.6032C38.5257 13.6527 38.4585 13.7122 38.4122 13.7131C37.9407 13.7211 37.4689 13.7181 36.9972 13.7173C36.9747 13.7173 36.9527 13.7099 36.9075 13.7022ZM40.9009 11.2828C40.6577 10.6667 40.4231 10.0725 40.1801 9.45699C39.9352 10.0781 39.6995 10.6756 39.4576 11.2881C39.9197 11.2881 40.3584 11.2881 40.7974 11.2878C40.8246 11.2881 40.8515 11.2854 40.9009 11.2828Z" fill="black"/>
<path d="M44.6665 15.2964C44.5871 15.4826 44.5199 15.6414 44.4516 15.7999C44.3522 16.0315 44.2489 16.2613 44.1542 16.4949C44.1139 16.5939 44.0573 16.6304 43.954 16.6299C43.242 16.6254 42.5298 16.6275 41.8179 16.6278C41.7579 16.6278 41.6973 16.6275 41.6376 16.6334C41.3891 16.6578 41.2475 16.8146 41.25 17.0591C41.2522 17.2931 41.4113 17.4666 41.6504 17.4748C41.9184 17.484 42.1869 17.471 42.4548 17.4796C42.8097 17.4907 43.169 17.481 43.5178 17.5385C44.2133 17.6531 44.6657 18.1304 44.7462 18.8958C44.8631 20.0083 44.2508 20.8268 43.2032 20.9673C43.0979 20.9815 42.9918 20.9947 42.8861 20.995C41.9567 20.9971 41.0273 20.9938 40.098 20.9985C39.9802 20.9991 39.9488 20.9582 39.9511 20.8386C39.9575 20.5003 39.9577 20.1615 39.9513 19.8233C39.9491 19.7054 39.9869 19.6742 40.0941 19.6748C40.9679 19.6786 41.8417 19.6772 42.7158 19.676C42.7941 19.676 42.873 19.6692 42.9505 19.6577C43.1518 19.628 43.2831 19.4801 43.2923 19.2797C43.3031 19.0372 43.1976 18.8787 42.9824 18.8286C42.911 18.8121 42.8355 18.8118 42.7619 18.8115C42.3413 18.8101 41.9203 18.8171 41.4996 18.8089C41.0515 18.8004 40.6255 18.7025 40.279 18.3743C39.8331 17.9515 39.7187 17.3982 39.8086 16.8052C39.9364 15.9628 40.4864 15.4484 41.3292 15.3261C41.4388 15.3102 41.5499 15.2984 41.6601 15.2984C42.6034 15.2961 43.5466 15.2967 44.4899 15.2967C44.5396 15.2964 44.589 15.2964 44.6665 15.2964Z" fill="black"/>
<path d="M45.2087 20.9967C45.2087 20.5485 45.2087 20.1199 45.2087 19.677C45.2676 19.677 45.322 19.677 45.3765 19.677C46.2414 19.677 47.1063 19.6773 47.9713 19.6756C48.0493 19.6753 48.1282 19.6676 48.2054 19.6535C48.4083 19.6164 48.5311 19.469 48.5363 19.2652C48.5422 19.0342 48.4331 18.8763 48.2248 18.8274C48.1579 18.8117 48.0871 18.8126 48.0182 18.8114C47.4915 18.8017 46.9622 18.8241 46.4385 18.7773C45.6233 18.7039 45.0796 18.0976 45.0321 17.244C44.9705 16.1351 45.6613 15.4524 46.5738 15.3252C46.6971 15.3081 46.8223 15.298 46.9467 15.2978C47.8763 15.2957 48.806 15.2966 49.7356 15.2966C49.7811 15.2966 49.8264 15.2966 49.9053 15.2966C49.8333 15.4695 49.7728 15.6189 49.7095 15.7671C49.6082 16.0034 49.499 16.2361 49.4055 16.4757C49.3588 16.595 49.2908 16.6315 49.1736 16.6306C48.4661 16.6256 47.7583 16.6274 47.0505 16.628C46.9814 16.628 46.9111 16.628 46.8428 16.638C46.6135 16.6719 46.4816 16.8416 46.4919 17.0832C46.501 17.3003 46.6648 17.4718 46.8853 17.4744C47.3524 17.4803 47.8197 17.4724 48.2867 17.4792C48.6557 17.4845 49.0134 17.549 49.3352 17.7585C49.7553 18.0319 49.955 18.4435 49.9919 18.9529C50.0199 19.3409 49.9758 19.7174 49.7945 20.0636C49.5118 20.603 49.0584 20.8741 48.4994 20.9598C48.2903 20.992 48.0757 20.994 47.8638 20.9949C47.0405 20.9987 46.2172 20.9967 45.394 20.9967C45.3354 20.9967 45.2768 20.9967 45.2087 20.9967Z" fill="black"/>
<path d="M23.1286 20.9967C23.0758 20.9967 23.0228 20.9967 22.97 20.9967C22.4566 20.9967 21.9435 20.9935 21.4301 20.9994C21.3179 21.0006 21.2432 20.9652 21.1704 20.8739C20.747 20.343 20.3177 19.8171 19.8901 19.2897C19.8723 19.2679 19.8507 19.2493 19.8199 19.2187C19.6402 19.4394 19.463 19.6571 19.2859 19.8748C19.0082 20.2163 18.7328 20.5601 18.4507 20.8975C18.4101 20.9458 18.3385 20.992 18.2804 20.9926C17.7209 21 17.1614 20.9973 16.6019 20.9967C16.5891 20.9967 16.5764 20.9897 16.5353 20.9773C17.3364 20.0186 18.1274 19.072 18.9258 18.1165C18.1463 17.1867 17.3711 16.2624 16.5722 15.3096C16.6477 15.3034 16.6905 15.2969 16.733 15.2969C17.2694 15.2964 17.8059 15.2934 18.3421 15.3011C18.409 15.302 18.4945 15.3438 18.539 15.3971C18.9457 15.8859 19.345 16.3815 19.7468 16.8747C19.7763 16.9109 19.8085 16.9442 19.8507 16.9916C19.9726 16.8434 20.0873 16.7047 20.2011 16.565C20.5179 16.1752 20.8325 15.7837 21.1532 15.3974C21.1938 15.3488 21.2654 15.3017 21.3232 15.3011C21.8735 15.294 22.4236 15.2972 22.9739 15.2978C22.9959 15.2978 23.0181 15.3031 23.0753 15.3108C22.2917 16.2468 21.5248 17.1631 20.7531 18.0847C21.5542 19.0478 22.3492 20.0033 23.1441 20.9587C23.1397 20.9711 23.1341 20.9841 23.1286 20.9967Z" fill="black"/>
<path d="M23.2847 18.1401C23.2847 17.2524 23.2874 16.3644 23.2819 15.4767C23.281 15.3362 23.3174 15.2929 23.4526 15.2935C24.4745 15.2994 25.4963 15.289 26.5181 15.3011C27.0488 15.3073 27.5278 15.4835 27.9012 15.9057C28.2433 16.2925 28.3647 16.7651 28.3552 17.2836C28.3349 18.3976 27.5386 19.1003 26.5895 19.1383C26.0355 19.1604 25.4805 19.1563 24.9257 19.1548C24.7949 19.1545 24.7488 19.1913 24.751 19.3363C24.7588 19.8316 24.7513 20.3271 24.7566 20.8224C24.758 20.9523 24.7263 21.0027 24.5936 20.9992C24.2193 20.9897 23.8447 20.9959 23.4701 20.9956C23.2858 20.9956 23.2855 20.995 23.2852 20.8029C23.2849 20.3566 23.2849 19.9102 23.2849 19.4639C23.2847 19.0231 23.2847 18.5815 23.2847 18.1401ZM24.7546 16.6325C24.7546 17.0105 24.7524 17.3726 24.7585 17.7344C24.7591 17.7662 24.8157 17.8243 24.8466 17.8246C25.3547 17.8299 25.8631 17.839 26.3707 17.8231C26.6886 17.8131 26.8877 17.5662 26.888 17.2353C26.8883 16.8939 26.6892 16.6458 26.366 16.637C25.8359 16.6216 25.305 16.6325 24.7546 16.6325Z" fill="black"/>
<path d="M36.8556 12.3984C36.735 12.671 36.6279 12.9137 36.5204 13.1562C36.4515 13.3112 36.386 13.4682 36.311 13.6197C36.2911 13.6603 36.2427 13.7119 36.2061 13.7131C35.6638 13.7325 35.1248 13.7184 34.6134 13.4891C33.8009 13.125 33.3619 12.4565 33.2156 11.5529C33.117 10.9451 33.1323 10.3417 33.3219 9.75331C33.6429 8.75659 34.3262 8.18856 35.2862 8.07189C36.0306 7.98144 36.7886 8.01945 37.552 8C37.552 8.47228 37.552 8.9154 37.552 9.37177C37.4892 9.3756 37.4303 9.38208 37.3715 9.38238C36.8814 9.38414 36.3907 9.37089 35.9012 9.38856C35.1057 9.41744 34.6653 9.87617 34.6267 10.7188C34.6156 10.9601 34.6364 11.2123 34.6936 11.4456C34.8344 12.021 35.2473 12.3543 35.8168 12.3802C36.1031 12.3931 36.3899 12.3858 36.6767 12.3884C36.7256 12.3887 36.7748 12.3937 36.8556 12.3984Z" fill="black"/>
<path d="M31.0023 8.01876C31.4546 8.01876 31.898 8.01994 32.3417 8.01758C32.4189 8.01729 32.4539 8.04734 32.4489 8.12895C32.4475 8.1534 32.4492 8.17786 32.4492 8.2026C32.4492 9.9733 32.4492 11.7437 32.4489 13.5144C32.4489 13.718 32.4478 13.718 32.2609 13.7177C31.8772 13.7177 31.4935 13.7156 31.1097 13.7191C31.0217 13.72 30.9886 13.692 30.9886 13.5939C30.9906 11.7546 30.9898 9.91555 30.9898 8.07621C30.99 8.06266 30.9956 8.04881 31.0023 8.01876Z" fill="black"/>
</svg>
