<svg width="56" height="28" viewBox="0 0 56 28" fill="none" xmlns="http://www.w3.org/2000/svg">
<rect width="56" height="28" fill="#F4F4F4"/>
<g clip-path="url(#clip0)">
<path d="M18.8466 11.0828C16.9523 12.407 17.0899 14.8205 19.177 15.9124C18.7943 16.9905 18.225 17.9611 17.3404 18.7303C16.8546 19.1528 16.2498 19.2044 15.6787 18.9411C14.7542 18.5144 13.8714 18.5376 12.9522 18.9515C12.3927 19.2036 11.8207 19.1554 11.3367 18.7389C9.69279 17.3244 8.5409 14.3868 9.17857 12.2607C9.61109 10.8203 10.8385 9.87987 12.2586 9.9685C12.6609 9.99345 13.0694 10.126 13.4451 10.2774C13.9416 10.4779 14.3998 10.4856 14.891 10.2705C15.7054 9.91343 16.5455 9.75511 17.4265 10.0563C18.0003 10.2524 18.4736 10.5699 18.8466 11.0828Z" fill="black"/>
<path d="M24.3423 18.9713C23.7073 18.9713 23.1513 18.9713 22.5696 18.9713C22.5696 15.256 22.5696 11.5673 22.5696 7.86136C22.646 7.84673 22.7152 7.82264 22.7854 7.82264C24.2197 7.82092 25.6549 7.80027 27.0892 7.82953C28.9045 7.86652 30.2429 8.99026 30.5982 10.7223C30.9543 12.4621 30.1515 14.1684 28.5813 14.8034C27.9978 15.04 27.329 15.1226 26.6896 15.1742C25.9285 15.2362 25.1585 15.1888 24.3423 15.1888C24.3423 16.4606 24.3423 17.6987 24.3423 18.9713ZM24.36 13.776C25.3148 13.7347 26.2491 13.7605 27.1612 13.6366C28.2145 13.4929 28.8042 12.6962 28.8468 11.5724C28.8877 10.4848 28.3557 9.60547 27.3423 9.42478C26.3707 9.25097 25.3609 9.28022 24.3591 9.21913C24.36 10.7868 24.36 12.2401 24.36 13.776Z" fill="black"/>
<path d="M38.2289 18.9814C37.7076 18.9814 37.2076 18.9814 36.6481 18.9814C36.6481 18.577 36.6481 18.1872 36.6481 17.7966C36.0806 18.4419 35.4278 18.8747 34.5992 19.0219C33.8709 19.1518 33.1533 19.1002 32.4783 18.7827C31.56 18.3516 31.1168 17.6133 31.1275 16.6428C31.1382 15.6808 31.6382 14.9692 32.5751 14.6939C33.3691 14.4598 34.2164 14.385 35.045 14.2731C35.537 14.2069 36.0388 14.2051 36.5255 14.1742C36.7076 13.121 36.4047 12.5015 35.6143 12.2511C34.6036 11.931 33.6498 12.2614 33.2119 13.0694C33.1613 13.1632 33.037 13.2759 32.9411 13.281C32.4872 13.3034 32.0325 13.2914 31.5503 13.2914C31.5902 12.5282 31.9188 11.9628 32.4908 11.5257C33.7039 10.5991 35.9491 10.5423 37.212 11.4036C37.855 11.8415 38.252 12.4464 38.2644 13.2036C38.2955 15.063 38.2787 16.9241 38.2778 18.7844C38.2778 18.8506 38.2458 18.916 38.2289 18.9814ZM36.5211 15.2902C35.561 15.4037 34.6063 15.4691 33.6737 15.6455C33.1045 15.7531 32.846 16.1867 32.8647 16.6815C32.8815 17.1418 33.1888 17.5075 33.7075 17.6701C34.9393 18.0565 36.8799 17.4163 36.5211 15.2902Z" fill="black"/>
<path d="M47 10.8989C46.9468 11.077 46.9175 11.2001 46.8739 11.3179C45.873 14.0386 44.8766 16.7602 43.8623 19.4757C43.6927 19.9301 43.4795 20.3775 43.2247 20.7922C42.7344 21.589 41.9928 22.0028 41.0212 22.0003C40.6678 21.9994 40.3152 22.0003 39.9297 22.0003C39.9297 21.5606 39.9297 21.1545 39.9297 20.701C40.0665 20.701 40.1944 20.7001 40.3214 20.701C41.5665 20.7079 42.3374 19.6487 41.9129 18.5095C41.0212 16.1157 40.1287 13.722 39.237 11.3283C39.1926 11.2087 39.1491 11.0882 39.0807 10.9015C39.6757 10.9015 40.2281 10.8851 40.7779 10.917C40.8729 10.9221 40.9964 11.1157 41.0381 11.2439C41.6642 13.1662 42.2779 15.0927 42.896 17.0175C42.9378 17.1465 42.992 17.2713 43.087 17.5182C43.3161 16.8092 43.5089 16.2173 43.6998 15.6244C44.1687 14.1634 44.6465 12.7058 45.0968 11.2396C45.1821 10.9609 45.3135 10.8817 45.5933 10.8937C46.0444 10.9127 46.4992 10.8989 47 10.8989Z" fill="black"/>
<path d="M14.1084 9.71726C13.8935 8.46102 15.1431 7.06367 16.5383 7C16.8003 8.32507 15.3713 9.9229 14.1084 9.71726Z" fill="black"/>
</g>
<defs>
<clipPath id="clip0">
<rect width="38" height="15" fill="white" transform="translate(9 7)"/>
</clipPath>
</defs>
</svg>
