<svg width="31" height="31" viewBox="0 0 31 31" fill="none" xmlns="http://www.w3.org/2000/svg">
<circle cx="15.0448" cy="15.0448" r="15.0448" fill="#F4F4F4"/>
<path d="M15.4964 9.35122C17.5017 9.35122 17.7389 9.35841 18.5295 9.39435C19.2626 9.43028 19.6579 9.55247 19.9238 9.65309C20.276 9.78965 20.5204 9.95496 20.7863 10.2137C21.0522 10.4796 21.2103 10.724 21.3469 11.0762C21.4475 11.3421 21.5697 11.7374 21.6057 12.4705C21.6416 13.2611 21.6488 13.4983 21.6488 15.5036C21.6488 17.5089 21.6416 17.746 21.6057 18.5367C21.5697 19.2698 21.4475 19.6651 21.3469 19.931C21.2103 20.2832 21.045 20.5276 20.7863 20.7935C20.5276 21.0522 20.276 21.2175 19.9238 21.3541C19.6579 21.4547 19.2626 21.5769 18.5295 21.6128C17.7389 21.6488 17.5017 21.656 15.4964 21.656C13.4911 21.656 13.254 21.6488 12.4633 21.6128C11.7302 21.5769 11.3349 21.4547 11.069 21.3541C10.7168 21.2175 10.4724 21.0522 10.2065 20.7935C9.94058 20.5276 9.78246 20.2832 9.6459 19.931C9.54528 19.6651 9.4231 19.2698 9.38716 18.5367C9.35122 17.746 9.34403 17.5089 9.34403 15.5036C9.34403 13.4983 9.35122 13.2611 9.38716 12.4705C9.43028 11.7374 9.55247 11.3421 9.65309 11.0762C9.78965 10.724 9.95496 10.4796 10.2137 10.2137C10.4796 9.94777 10.724 9.78965 11.0762 9.65309C11.3421 9.55247 11.7374 9.43028 12.4705 9.39435C13.2611 9.35841 13.4983 9.35122 15.4964 9.35122ZM15.4964 8C13.4624 8 13.2108 8.00719 12.4058 8.04312C11.608 8.07906 11.0618 8.20843 10.5874 8.3953C10.0915 8.58936 9.67465 8.84092 9.25779 9.25779C8.84092 9.67465 8.58218 10.0915 8.3953 10.5874C8.20843 11.0618 8.07906 11.608 8.04312 12.4058C8.00719 13.2108 8 13.4624 8 15.4964C8 17.5304 8.00719 17.7892 8.04312 18.587C8.07906 19.3848 8.20843 19.931 8.38812 20.4054C8.58218 20.9013 8.83373 21.3182 9.2506 21.735C9.66747 22.1519 10.0843 22.4106 10.5803 22.5975C11.0546 22.7844 11.6009 22.9066 12.3987 22.9425C13.1965 22.9784 13.4552 22.9856 15.4892 22.9856C17.5232 22.9856 17.782 22.9784 18.5798 22.9425C19.3776 22.9066 19.9238 22.7772 20.3982 22.5975C20.8941 22.4034 21.311 22.1519 21.7278 21.735C22.1447 21.3182 22.4034 20.9013 22.5903 20.4054C22.7772 19.931 22.8994 19.3848 22.9425 18.587C22.9784 17.7892 22.9856 17.5304 22.9856 15.4964C22.9856 13.4624 22.9784 13.2036 22.9425 12.4058C22.9066 11.608 22.7772 11.0618 22.5903 10.5874C22.3963 10.0915 22.1447 9.67465 21.7278 9.25779C21.311 8.84092 20.8941 8.58218 20.3982 8.3953C19.9238 8.20843 19.3776 8.08625 18.5798 8.04312C17.7892 8.00719 17.5376 8 15.4964 8Z" fill="black"/>
<path d="M15.4965 11.6514C13.369 11.6514 11.644 13.3763 11.644 15.5038C11.644 17.6312 13.369 19.3562 15.4965 19.3562C17.6239 19.3562 19.3489 17.6312 19.3489 15.5038C19.3489 13.3763 17.6239 11.6514 15.4965 11.6514ZM15.4965 17.9978C14.1165 17.9978 12.9953 16.8766 12.9953 15.4966C12.9953 14.1166 14.1165 12.9954 15.4965 12.9954C16.8764 12.9954 17.9977 14.1166 17.9977 15.4966C17.9977 16.8838 16.8836 17.9978 15.4965 17.9978Z" fill="black"/>
<path d="M20.4054 11.4931C20.4054 11.9891 20.0029 12.3916 19.5069 12.3916C19.011 12.3916 18.6085 11.9891 18.6085 11.4931C18.6085 10.9972 19.011 10.5947 19.5069 10.5947C20.0029 10.5947 20.4054 10.9972 20.4054 11.4931Z" fill="black"/>
</svg>
