<svg width="55" height="28" viewBox="0 0 55 28" fill="none" xmlns="http://www.w3.org/2000/svg">
<rect width="55" height="28" fill="#F4F4F4"/>
<path d="M40.7143 12.5876C40.6686 12.7276 40.6726 12.8745 40.6532 13.018C40.209 16.3054 37.6936 19.0155 34.3664 19.7294C31.8982 20.2592 29.6346 19.7692 27.5986 18.3027C27.5691 18.2814 27.5413 18.2582 27.5126 18.2358C27.5278 18.1962 27.5642 18.1771 27.5953 18.1526C28.0329 17.8072 28.4303 17.4217 28.7848 16.9961C29.353 16.3136 29.7983 15.5618 30.112 14.7365C30.4121 13.9474 30.5792 13.132 30.6145 12.2923C30.6268 12 30.6233 11.707 30.6008 11.4136C30.5706 11.0217 30.5178 10.6337 30.4307 10.2506C30.1906 9.19456 29.7502 8.22429 29.1046 7.3435C28.7515 6.8617 28.3484 6.42442 27.8965 6.02823C27.769 5.91638 27.6214 5.82626 27.5126 5.6942C28.4795 4.95235 29.5606 4.43227 30.765 4.19373C33.6321 3.62611 36.1528 4.31311 38.271 6.28376C39.5459 7.46997 40.3105 8.94032 40.609 10.6365C40.647 10.8516 40.6765 11.0678 40.6935 11.2852C40.6951 11.3052 40.6887 11.3293 40.7141 11.3414C40.7143 11.7569 40.7143 12.1722 40.7143 12.5876Z" fill="#0098DE"/>
<path d="M27.4943 18.2349C26.5222 18.9812 25.4337 19.496 24.2226 19.7409C21.7255 20.246 19.4422 19.7599 17.4252 18.2362C15.7549 16.9743 14.7212 15.306 14.3999 13.2674C13.9575 10.4605 14.8147 8.0558 16.9299 6.10279C18.1192 5.00476 19.5492 4.33992 21.1719 4.10138C23.4953 3.75961 25.5965 4.29195 27.4707 5.67433C27.4793 5.68078 27.4868 5.68895 27.4948 5.69627C27.4747 5.74187 27.4297 5.76338 27.3933 5.7922C26.8948 6.18667 26.4465 6.62975 26.0634 7.13156C24.6166 9.02606 24.0981 11.1408 24.5357 13.4631C24.8613 15.1905 25.7164 16.6428 27.0365 17.8361C27.1863 17.9716 27.3417 18.102 27.4943 18.2349Z" fill="#EA001B"/>
<path d="M27.4938 18.2344C27.3409 18.1015 27.1857 17.9711 27.0355 17.8354C25.7153 16.6421 24.8603 15.1898 24.5346 13.4624C24.0969 11.1401 24.6156 9.02556 26.0624 7.13084C26.4455 6.62925 26.8938 6.18617 27.3923 5.79148C27.4287 5.76266 27.4737 5.74136 27.4938 5.69555C27.4997 5.69254 27.5059 5.69211 27.5123 5.69404C27.6213 5.82589 27.7687 5.91623 27.8962 6.02808C28.3481 6.42427 28.7513 6.86155 29.1043 7.34335C29.7499 8.22414 30.1903 9.1944 30.4304 10.2505C30.5176 10.6336 30.5703 11.0216 30.6005 11.4135C30.623 11.7069 30.6266 11.9998 30.6142 12.2921C30.5787 13.1318 30.4119 13.9472 30.1118 14.7364C29.798 15.5615 29.353 16.3134 28.7846 16.9959C28.43 17.4218 28.0326 17.807 27.5951 18.1524C27.5639 18.177 27.5275 18.1963 27.5123 18.2357L27.5028 18.2368L27.4938 18.2344Z" fill="#6C6BBC"/>
<path d="M19.0724 22.0631C19.4032 21.64 20.1265 21.675 20.4268 22.1343C20.6344 21.8411 20.9292 21.7368 21.2794 21.7738C21.7432 21.8226 22.0208 22.1039 22.0355 22.5584C22.0497 22.9946 22.0391 23.4315 22.0415 23.8681C22.0417 23.9199 22.0247 23.9367 21.9724 23.9352C21.8623 23.9322 21.7518 23.9296 21.6421 23.9358C21.5693 23.9399 21.5589 23.9113 21.5594 23.8492C21.5623 23.5057 21.5609 23.1622 21.5605 22.8187C21.5605 22.7651 21.5611 22.7111 21.5572 22.6578C21.5358 22.3668 21.3729 22.207 21.0947 22.2018C20.8045 22.1964 20.6004 22.3644 20.5651 22.6399C20.557 22.7036 20.5532 22.7683 20.553 22.8324C20.5519 23.1725 20.5506 23.5123 20.5541 23.8524C20.5548 23.9186 20.5365 23.9395 20.4683 23.9356C20.3659 23.93 20.2624 23.9292 20.16 23.9358C20.087 23.9406 20.0771 23.9118 20.0775 23.85C20.0802 23.5029 20.0793 23.1557 20.0784 22.8088C20.0782 22.7481 20.0755 22.687 20.0667 22.627C20.0245 22.3405 19.8776 22.2048 19.6106 22.2014C19.3205 22.1977 19.1289 22.3539 19.0863 22.6313C19.0771 22.6911 19.0727 22.7522 19.0724 22.8129C19.0711 23.1564 19.0691 23.5001 19.0738 23.8434C19.0749 23.921 19.0508 23.9423 18.9754 23.9354C18.8525 23.924 18.687 23.9862 18.6175 23.9107C18.5566 23.8446 18.5989 23.6863 18.5989 23.5689C18.5983 23.0178 18.6 22.4668 18.5969 21.9157C18.5965 21.842 18.6139 21.8112 18.6927 21.8213C18.736 21.8269 18.7808 21.8224 18.8247 21.8224C19.0619 21.8222 19.0619 21.8222 19.0724 22.0631Z" fill="black"/>
<path d="M24.2112 22.0552C24.2202 22.0455 24.224 22.0434 24.2244 22.0408C24.2352 21.9709 24.1935 21.8775 24.2423 21.8356C24.2944 21.7911 24.3895 21.8227 24.4656 21.822C24.699 21.8201 24.699 21.8214 24.699 22.0481C24.699 22.6418 24.6973 23.2354 24.701 23.829C24.7015 23.9125 24.6803 23.9463 24.5925 23.9342C24.5492 23.9284 24.5047 23.9332 24.4605 23.9332C24.2319 23.9332 24.2319 23.9332 24.2242 23.7086C24.2178 23.7073 24.2079 23.703 24.2057 23.7054C23.9338 23.9966 23.5936 24.0448 23.2284 23.9409C22.8244 23.826 22.5808 23.5468 22.4886 23.1509C22.3599 22.5987 22.6148 22.0647 23.098 21.8569C23.4555 21.704 23.927 21.7261 24.2112 22.0552ZM24.2518 22.873C24.2502 22.5022 24.0137 22.2337 23.6629 22.2047C23.3017 22.1748 23.0217 22.3847 22.9537 22.7362C22.8829 23.1027 23.0812 23.4408 23.4199 23.5303C23.8659 23.6484 24.2536 23.3419 24.2518 22.873Z" fill="black"/>
<path d="M26.5068 23.0527C26.2643 23.0527 26.0218 23.0553 25.7796 23.0512C25.7023 23.0499 25.6973 23.0731 25.7162 23.1377C25.8113 23.4633 26.1266 23.6315 26.5117 23.5567C26.6608 23.5276 26.8012 23.4751 26.9232 23.3863C26.9691 23.353 26.9878 23.362 27.0141 23.4035C27.0582 23.4734 27.1026 23.544 27.1546 23.6085C27.203 23.6683 27.2014 23.7012 27.133 23.7502C26.6317 24.1099 25.8513 24.057 25.472 23.6328C25.0774 23.1917 25.1231 22.3861 25.5748 22.0153C25.9102 21.74 26.2994 21.6875 26.6994 21.8499C27.1094 22.0162 27.2771 22.3595 27.3106 22.7707C27.3336 23.0523 27.3263 23.0529 27.0359 23.0529C26.8594 23.0527 26.6831 23.0527 26.5068 23.0527ZM26.2643 22.6888C26.4256 22.6888 26.5869 22.6866 26.748 22.6898C26.8124 22.6911 26.827 22.6778 26.8109 22.612C26.744 22.3367 26.5538 22.1786 26.2776 22.1779C25.9887 22.1773 25.7762 22.3479 25.7136 22.6234C25.7003 22.6817 25.7171 22.6903 25.7694 22.6896C25.9344 22.6875 26.0995 22.6888 26.2643 22.6888Z" fill="black"/>
<path d="M35.2196 23.9997C34.5475 24.0023 34.04 23.52 34.0429 22.8814C34.0455 22.2472 34.5501 21.7662 35.2141 21.7651C35.8776 21.7641 36.3862 22.2439 36.3915 22.8759C36.3965 23.5142 35.893 23.9971 35.2196 23.9997ZM34.5358 22.8827C34.5353 23.2772 34.8173 23.5624 35.2097 23.5641C35.6077 23.5661 35.9007 23.2789 35.9018 22.8857C35.9029 22.4915 35.6126 22.205 35.213 22.2061C34.8167 22.2071 34.5362 22.4876 34.5358 22.8827Z" fill="black"/>
<path d="M28.6722 23.9898C28.3507 23.9823 28.0599 23.9236 27.7962 23.7633C27.74 23.7291 27.7172 23.7033 27.7638 23.641C27.824 23.5603 27.8527 23.4401 27.9304 23.3938C28.0193 23.3411 28.0994 23.4637 28.1916 23.4941C28.4377 23.5749 28.6848 23.6005 28.9383 23.5424C28.9802 23.5328 29.022 23.5147 29.059 23.4925C29.1261 23.4528 29.1638 23.3919 29.1603 23.3138C29.1565 23.2364 29.1036 23.1921 29.0367 23.163C28.8935 23.1007 28.7378 23.0942 28.5859 23.0718C28.4403 23.0503 28.2969 23.0219 28.163 22.9602C27.7245 22.7576 27.6806 22.1977 28.0826 21.9284C28.2852 21.7927 28.5173 21.7613 28.7552 21.7667C29.0215 21.7727 29.2797 21.8187 29.5193 21.942C29.5804 21.9734 29.5967 22.0026 29.5575 22.0644C29.5014 22.1521 29.4765 22.279 29.3982 22.3274C29.3194 22.376 29.2205 22.267 29.1241 22.242C28.9487 22.1964 28.7737 22.1661 28.5917 22.1878C28.5288 22.1954 28.4692 22.2123 28.4154 22.2435C28.3408 22.287 28.2976 22.3506 28.3046 22.4386C28.3112 22.5234 28.3732 22.5612 28.4456 22.5853C28.6241 22.6447 28.8141 22.6445 28.9968 22.6823C29.0939 22.7025 29.189 22.7279 29.2797 22.7677C29.4844 22.8574 29.6234 23 29.6464 23.2254C29.6709 23.4657 29.5815 23.6605 29.3783 23.8012C29.1621 23.9509 28.9121 23.9817 28.6722 23.9898Z" fill="black"/>
<path d="M30.4948 22.8377C30.495 22.6624 30.4932 22.4869 30.4959 22.3116C30.4967 22.2567 30.4802 22.2346 30.4211 22.2369C30.322 22.2408 30.2227 22.2358 30.1236 22.2389C30.0715 22.2404 30.0517 22.2234 30.0535 22.1715C30.0568 22.075 30.0563 21.9782 30.0537 21.8816C30.0523 21.8341 30.0718 21.8196 30.1183 21.8207C30.2174 21.8231 30.3169 21.8177 30.4158 21.8227C30.48 21.8259 30.4974 21.8033 30.4961 21.7433C30.4925 21.5824 30.4983 21.4211 30.4932 21.2602C30.491 21.1922 30.5139 21.1744 30.5806 21.1776C30.6869 21.1828 30.7937 21.1821 30.9001 21.1778C30.9586 21.1755 30.9747 21.1942 30.9733 21.2499C30.9698 21.4108 30.9755 21.5721 30.9705 21.733C30.9683 21.8018 30.9864 21.8252 31.0607 21.8233C31.2626 21.8181 31.4647 21.824 31.6666 21.8201C31.7302 21.8188 31.7483 21.8386 31.7449 21.8984C31.7401 21.984 31.7392 22.0704 31.7452 22.1558C31.7498 22.2217 31.7297 22.2414 31.6607 22.2397C31.466 22.235 31.2712 22.2412 31.0768 22.2365C31 22.2346 30.9678 22.247 30.9698 22.3335C30.9762 22.6198 30.9705 22.9061 30.9729 23.1926C30.9753 23.4767 31.1161 23.5901 31.4036 23.5384C31.4751 23.5255 31.5503 23.5081 31.6117 23.4728C31.6982 23.4229 31.7216 23.4576 31.7412 23.5322C31.7575 23.5941 31.7758 23.6572 31.805 23.7142C31.8498 23.8021 31.8213 23.8475 31.7339 23.8843C31.5014 23.9824 31.2615 24.0146 31.0133 23.9665C30.7156 23.9088 30.5409 23.7075 30.508 23.3956C30.4881 23.21 30.4974 23.0237 30.4948 22.8377Z" fill="black"/>
<path d="M32.9158 22.0721C33.0508 21.893 33.2026 21.7923 33.4041 21.7712C33.523 21.7588 33.6375 21.7762 33.7525 21.8011C33.8061 21.8127 33.8275 21.8321 33.8057 21.8893C33.7677 21.9895 33.7359 22.0919 33.7028 22.1941C33.6894 22.2358 33.6759 22.2646 33.6201 22.2386C33.5848 22.2221 33.5427 22.2173 33.5027 22.2126C33.1373 22.1702 32.9405 22.3238 32.9284 22.6854C32.9156 23.0676 32.9215 23.4502 32.9242 23.8326C32.9248 23.9092 32.9105 23.9426 32.8231 23.9355C32.7212 23.9273 32.6177 23.9309 32.5151 23.9346C32.4617 23.9363 32.4471 23.9185 32.4474 23.8675C32.4489 23.2061 32.4491 22.5447 32.4471 21.8835C32.4469 21.8269 32.4712 21.8196 32.5191 21.8209C32.6181 21.8235 32.7177 21.8278 32.8161 21.8198C32.9006 21.813 32.9282 21.8407 32.9165 21.9201C32.9112 21.9584 32.9158 21.9984 32.9158 22.0721Z" fill="black"/>
</svg>
