<svg width="598" height="329" viewBox="0 0 598 329" fill="none" xmlns="http://www.w3.org/2000/svg">
<path d="M8.208 175.192L11.304 168.784H36.504L45.72 187H53.568L27.72 137.104H16.056C16.416 137.536 17.496 138.256 19.368 139.192C21.168 140.2 22.392 141.064 22.968 141.928L0.72 187H8.352C5.616 184.264 5.544 180.376 8.208 175.192ZM23.616 143.152L36 167.704H11.808L23.616 143.152ZM58.2744 172.096L57.8424 171.952L57.9864 186.64C61.4424 187.144 64.0344 187.504 65.8344 187.648C67.6344 187.792 69.8664 187.936 72.5304 187.936C75.1224 188.008 77.3544 187.72 79.1544 187.072C80.9544 186.496 82.5384 185.56 83.9064 184.336C84.6984 183.616 85.4904 182.392 86.2824 180.808C87.0744 179.224 87.4344 177.496 87.2904 175.624C87.1464 173.464 86.1384 171.664 84.2664 170.152C82.3944 168.712 80.1624 167.56 77.5704 166.696C74.9784 165.904 72.3864 165.112 69.7944 164.392C67.2024 163.672 64.9704 162.664 63.0984 161.512C61.2264 160.36 60.2904 158.848 60.1464 157.12C60.0024 156.04 60.2184 155.104 60.6504 154.312C61.0824 153.592 61.8024 153.016 62.7384 152.584C63.6744 152.152 64.4664 151.864 65.1864 151.72C65.9064 151.576 66.6984 151.36 67.7064 151.216C70.5864 150.928 73.1064 151.144 75.3384 151.792C77.4984 152.44 79.2984 153.376 80.5944 154.672C81.8904 155.968 82.8264 157.408 83.5464 158.848C84.2664 160.288 84.6984 161.872 84.9864 163.456H85.4184V152.656C77.4264 149.776 70.5144 149.2 64.7544 150.856C58.9944 152.512 56.3304 156.04 56.8344 161.368C56.9784 163.384 57.9864 165.184 59.8584 166.696C61.7304 168.208 63.8904 169.432 66.4824 170.296C69.0744 171.232 71.5944 172.096 74.1864 172.96C76.7064 173.824 78.8664 174.832 80.6664 175.984C82.4664 177.136 83.4024 178.432 83.4744 179.872C83.4744 180.592 83.3304 181.24 83.1864 181.816C82.3224 184.408 80.1624 186.064 76.7064 186.784C72.6744 187.648 68.9304 187.072 65.3304 184.984C60.5784 182.32 58.2744 178 58.2744 172.096ZM124.656 159.856V153.376C121.848 151.792 119.112 150.712 116.448 150.208C113.784 149.776 110.688 149.848 107.232 150.568C105.072 151.144 103.056 152.08 101.184 153.232C99.3116 154.384 97.7996 155.536 96.7916 156.688C95.7116 157.84 94.7756 159.136 93.9116 160.432C93.0476 161.8 92.5436 162.736 92.3276 163.24C92.1116 163.744 91.9676 164.104 91.8956 164.392C91.2476 166.408 90.8876 168.496 90.8876 170.656C90.8156 172.816 91.2476 174.904 92.1836 176.992C93.1196 179.08 94.2716 180.952 95.7116 182.536C97.0796 184.192 98.8796 185.488 101.112 186.496C103.272 187.504 105.72 188.008 108.312 188.008C113.496 188.008 118.104 186.712 122.28 184.12C123.432 183.472 124.44 182.752 125.376 181.888C126.24 181.096 126.96 180.376 127.464 179.728C127.968 179.152 128.4 178.504 128.76 177.784C129.12 177.136 129.336 176.704 129.408 176.488L129.624 175.912H129.48C127.896 178.792 125.592 181.096 122.712 182.68C119.832 184.264 117.168 185.056 114.72 185.056C111.48 185.056 108.528 184.336 105.936 182.896C103.344 181.456 101.328 179.512 99.8876 177.208C98.4476 174.904 97.3676 172.384 96.7916 169.72C96.1436 167.128 96.0716 164.536 96.6476 161.944C97.2236 159.424 98.3036 157.336 99.8876 155.608C101.616 153.592 103.992 152.584 107.088 152.728C110.184 152.872 113.28 153.664 116.448 154.96C119.616 156.328 122.352 157.984 124.656 159.856ZM148.74 150.28C143.556 150.28 138.948 152.224 134.844 156.112C130.74 160 128.652 164.392 128.652 169.432C128.508 174.544 130.452 178.936 134.412 182.608C138.3 186.28 142.836 188.08 148.02 188.08C153.204 188.08 157.812 186.28 161.916 182.608C165.948 178.936 168.036 174.544 168.108 169.432C168.108 164.392 166.164 159.928 162.276 156.04C158.388 152.224 153.852 150.28 148.74 150.28ZM149.46 186.64C145.788 186.64 142.548 185.128 139.812 182.032C137.004 178.936 135.42 174.76 135.06 169.432C134.628 163.816 135.564 159.424 137.94 156.256C140.244 153.088 143.34 151.432 147.084 151.432C150.9 151.432 154.212 153.016 157.02 156.04C159.828 159.064 161.34 163.528 161.484 169.432C161.484 175.12 160.404 179.44 158.244 182.32C156.084 185.2 153.132 186.64 149.46 186.64ZM179.242 128.968L173.338 134.224V180.664C173.482 183.4 174.202 185.128 175.642 185.848C177.082 186.64 179.674 187 183.562 187C180.826 186.424 179.386 182.824 179.242 176.056C178.81 160.36 178.81 144.664 179.242 128.968ZM214.714 176.344H214.066C212.338 179.008 210.394 181.168 208.162 182.824C204.634 185.416 201.466 186.28 198.658 185.56C195.994 184.912 194.698 183.04 194.77 179.944L194.986 155.176H206.29L209.89 151H194.986V142.288L184.474 155.176H189.154V177.856C189.154 180.232 189.73 182.248 190.954 183.904C192.106 185.56 193.69 186.64 195.634 187.144C197.578 187.648 199.666 187.72 201.898 187.288C204.13 186.856 206.434 185.704 208.738 183.76C211.042 181.888 212.986 179.368 214.714 176.344ZM221.158 151.504L215.254 158.776L225.91 154.816C231.094 152.872 235.27 152.368 238.366 153.232C241.462 154.096 242.974 156.616 242.902 160.792C242.902 161.08 242.686 161.44 242.326 161.728C241.966 162.088 241.534 162.376 241.03 162.664C240.454 162.952 239.806 163.312 239.014 163.6C238.222 163.888 237.43 164.176 236.71 164.392C235.99 164.68 235.126 164.896 234.262 165.184C233.398 165.472 232.606 165.688 231.958 165.832C231.31 165.976 230.662 166.12 230.014 166.264L228.718 166.552C228.502 166.624 228.358 166.696 228.214 166.696C221.158 168.136 216.55 170.872 214.246 174.904C212.518 177.928 212.518 180.808 214.318 183.4C216.118 186.208 219.142 187.576 223.462 187.576C226.126 187.576 228.79 186.712 231.454 184.912C235.774 182.032 239.59 177.28 242.758 170.656L242.83 170.44L242.686 175.048V180.664C242.83 183.4 243.55 185.128 244.99 185.848C246.43 186.64 249.094 187 252.982 187C250.102 186.424 248.662 182.752 248.662 176.056V175.048C248.59 172.312 248.59 168.784 248.59 164.608C248.59 162.592 247.942 160.72 246.79 158.848C245.638 156.976 244.054 155.464 242.038 154.168C240.022 152.944 237.862 151.936 235.558 151.216C233.182 150.496 230.734 150.136 228.142 150.136C225.55 150.208 223.246 150.64 221.158 151.504ZM219.214 178.576C218.638 177.568 218.278 176.56 218.278 175.624C218.206 174.688 218.35 173.896 218.638 173.176C218.926 172.528 219.358 171.88 220.006 171.304C220.654 170.728 221.302 170.224 222.022 169.864C222.67 169.504 223.462 169.144 224.326 168.856C225.19 168.568 225.91 168.28 226.486 168.136L228.286 167.704C228.862 167.56 229.222 167.488 229.294 167.488C231.598 166.984 233.614 166.48 235.414 165.904C237.214 165.4 238.582 164.968 239.446 164.536C240.31 164.104 241.03 163.744 241.606 163.384C242.182 163.096 242.542 162.808 242.686 162.664L242.902 162.52L242.83 164.68C242.686 167.848 241.102 171.304 238.006 175.12C234.838 178.936 231.598 181.384 228.142 182.464C224.686 183.616 221.662 182.32 219.214 178.576Z" fill="black"/>
<path d="M222.8 266.904C220.136 271.936 217.324 275.636 214.364 277.856C211.404 280.076 208.444 280.964 205.78 280.668C203.116 280.372 200.304 279.484 197.64 278.152C194.828 276.968 192.164 275.488 189.648 273.86C186.984 272.38 184.616 271.196 182.396 270.308C180.176 269.42 178.104 269.716 176.032 270.9C173.96 272.084 172.332 274.6 171 278.3C176.92 280.52 182.248 282 186.984 282.888C191.72 283.776 197.048 283.776 202.672 282.888C208.296 282 213.624 279.928 218.508 276.524C220.728 275.044 223.244 272.528 226.056 269.272C228.868 266.016 230.792 262.464 231.976 258.616C233.16 254.176 232.42 250.772 229.756 248.108C226.944 245.444 223.096 243.52 218.36 242.336C213.624 241.152 208.888 239.82 204.152 238.488C199.416 237.304 195.568 235.232 192.608 232.272C189.648 229.46 188.908 225.76 190.092 221.024C191.72 216.288 193.94 212.884 196.9 210.96C199.712 209.184 202.672 208.592 205.78 209.332C208.74 210.072 211.996 210.96 215.548 212.144C219.1 213.328 222.356 214.512 225.316 215.548C228.276 216.732 230.94 216.732 233.604 215.696C236.12 214.66 238.044 212.292 239.376 208.444C233.308 206.372 227.092 205.188 220.728 205.04C214.364 204.892 208.444 205.632 202.968 207.26C197.492 208.888 192.608 211.552 188.464 215.4C184.32 219.248 181.508 223.984 180.028 229.312C178.844 233.456 179.14 236.86 181.212 239.524C183.136 242.188 185.948 244.112 189.648 245.296C193.348 246.48 197.344 247.664 201.784 248.848C206.076 250.032 210.072 251.216 213.772 252.252C217.472 253.436 220.284 255.212 222.06 257.58C223.836 260.096 223.984 263.204 222.8 266.904ZM318.839 226.204C319.431 226.796 320.023 226.944 320.763 226.648C322.687 226.352 324.167 224.724 325.351 221.616C326.831 217.472 326.239 214.66 323.723 212.884C319.135 209.628 314.399 207.556 309.367 206.372C304.335 205.336 297.823 205.632 289.979 207.112C285.095 208.296 280.359 210.22 275.623 212.588C270.887 214.956 266.891 217.324 263.931 219.692C260.971 222.06 258.011 224.724 255.347 227.388C252.535 230.2 250.759 232.124 249.871 233.16C248.983 234.196 248.391 234.936 248.095 235.528C243.063 242.336 240.103 249.588 239.363 256.988C238.475 264.536 240.251 270.9 244.691 276.228C248.983 281.556 255.495 284.072 264.227 284.072C274.883 284.072 285.391 281.408 295.751 276.08C300.191 274.008 304.187 271.344 307.887 268.384C311.587 265.424 313.955 263.352 314.843 262.168C315.731 260.984 316.471 259.948 317.063 259.208H316.767C311.291 265.128 304.927 269.864 297.823 273.12C290.719 276.376 284.651 278.004 279.619 278.004C271.331 278.004 264.967 275.784 260.527 271.048C256.087 266.46 253.719 260.984 253.571 254.472C253.275 248.108 254.755 241.448 257.863 234.492C260.971 227.536 265.411 221.912 271.035 217.472C276.067 213.328 281.839 211.256 288.055 211.552C294.271 211.848 300.191 213.476 305.667 216.14C310.995 218.952 315.435 222.356 318.839 226.204ZM378.172 206.52C367.516 206.52 356.564 210.516 345.316 218.508C334.068 226.5 326.52 235.528 322.672 245.888C318.528 256.396 319.268 265.424 324.596 272.972C329.924 280.52 337.768 284.22 348.424 284.22C359.08 284.22 369.884 280.52 380.984 272.972C392.084 265.424 399.632 256.396 403.776 245.888C407.624 235.528 406.884 226.352 401.704 218.36C396.376 210.516 388.532 206.52 378.172 206.52ZM352.568 281.26C345.02 281.26 339.544 278.152 336.14 271.788C332.736 265.424 332.588 256.84 335.844 245.888C339.1 234.344 344.28 225.316 351.532 218.804C358.784 212.292 366.332 208.888 374.028 208.888C379.06 208.888 383.204 210.22 386.46 212.736C389.716 215.4 391.936 219.396 392.972 224.872C394.008 230.348 393.12 237.304 390.16 245.888C385.868 257.58 380.392 266.46 373.88 272.38C367.22 278.3 360.116 281.26 352.568 281.26ZM416.899 268.532L434.955 217.62C449.903 209.332 461.003 207.408 468.403 212.144C474.471 216.14 476.987 223.54 475.951 234.492C474.767 245.74 470.475 255.952 463.075 265.424C454.195 276.968 443.835 282.592 432.143 282.592C426.667 282.592 422.375 281.408 419.119 279.04C415.863 276.672 415.123 273.12 416.899 268.532ZM413.199 223.392L423.115 217.62L383.895 325.216L399.879 314.856L414.827 273.86C414.679 275.784 415.271 277.412 416.455 278.892C417.639 280.372 418.971 281.408 420.451 282C421.931 282.592 423.559 283.184 425.631 283.48C427.555 283.776 428.887 284.072 429.775 284.072C430.515 284.072 431.107 284.072 431.699 284.072C435.843 284.072 440.431 283.036 445.463 280.964C450.495 278.892 454.787 276.524 458.487 273.86C462.039 271.344 465.739 268.384 469.587 264.98C473.287 261.576 475.803 259.208 476.987 257.876C478.171 256.544 479.207 255.508 479.947 254.62C484.387 249.144 487.495 243.668 489.271 238.044C491.047 232.568 491.491 227.684 490.603 223.244C489.715 218.952 487.643 215.252 484.535 212.292C481.427 209.332 477.579 207.26 472.843 206.076C468.107 205.04 462.631 205.336 456.119 206.816C449.607 208.296 442.799 211.256 435.695 215.548L439.987 204.004L413.199 223.392ZM522.107 226.204C523.883 220.58 523.883 215.844 522.107 211.996C520.035 208 516.779 206.224 512.339 206.816C506.271 207.704 500.795 212.588 496.059 221.32L489.695 231.976H490.583L496.355 222.948C497.687 220.876 499.167 218.804 500.647 217.028C505.383 211.108 509.083 208.444 511.747 209.036C515.003 209.628 514.411 215.252 510.119 225.908L508.935 229.312L493.247 273.12L489.547 282H502.719L505.531 273.12L516.039 244.704C516.039 244.704 516.335 243.668 517.075 241.596L519.147 235.528C519.739 233.456 520.775 231.088 522.107 228.424C523.439 225.76 524.771 223.392 526.251 221.32C527.731 219.248 529.359 217.62 531.431 216.14C533.503 214.808 535.575 214.068 537.647 214.068C540.015 214.068 542.531 214.364 545.343 214.66C548.007 214.956 550.079 215.252 551.559 215.4C553.039 215.548 554.371 215.548 555.851 215.4C557.331 215.252 558.367 214.808 559.255 213.92C560.143 213.032 560.883 211.848 561.475 210.072C562.067 208.592 561.179 207.408 558.811 206.668C554.223 205.336 548.303 205.928 541.199 208.444C531.135 212.144 524.771 218.064 522.107 226.204ZM581.602 186.096C580.714 188.316 580.862 190.092 581.75 191.572C582.638 193.052 584.266 193.792 586.486 193.792C588.558 193.792 590.778 193.052 592.85 191.572C594.922 190.092 596.254 188.316 597.142 186.096C597.882 184.024 597.734 182.1 596.846 180.62C595.81 179.14 594.182 178.252 592.11 178.252C589.89 178.252 587.818 179.14 585.746 180.62C583.674 182.1 582.342 184.024 581.602 186.096ZM557.626 220.728L551.262 231.384H552.15L557.922 222.356C559.402 220.136 560.882 218.064 562.362 216.14C567.098 210.368 570.798 207.852 573.314 208.444C576.274 209.332 575.682 214.956 571.538 225.316L557.478 263.944C555.554 269.568 555.554 274.304 557.478 278.152C559.402 282.296 562.658 283.924 567.246 283.332C573.166 282.444 578.642 277.708 583.526 268.828L589.89 258.172H589.002L583.23 267.2C581.75 269.42 580.418 271.344 578.938 273.12C574.202 279.04 570.502 281.704 567.838 281.112C564.582 280.52 565.026 274.896 569.466 264.24L583.526 225.612C585.302 219.988 585.302 215.252 583.526 211.404C581.454 207.26 578.198 205.632 573.758 206.224C567.69 207.112 562.362 211.996 557.626 220.728Z" fill="black"/>
<path d="M115.288 29.208H63.592L71.944 31.944V125.4C71.944 125.544 71.8 126.696 71.512 129H84.904L84.616 125.832V91.416H118.888C124.792 91.416 130.696 90.12 136.456 87.816C142.216 85.512 147.112 81.768 151.288 76.584C155.464 71.4 157.624 65.496 157.624 58.728C157.624 50.376 153.448 43.32 145.384 37.704C137.176 32.088 127.096 29.208 115.288 29.208ZM117.448 88.824H84.616V31.512H106.36C130.552 31.512 142.792 40.728 142.792 59.16C142.792 68.232 140.488 75.432 135.88 80.616C131.272 85.944 125.08 88.68 117.448 88.824ZM157.432 105.384L163.624 92.568H214.024L232.456 129H248.152L196.456 29.208H173.128C173.848 30.072 176.008 31.512 179.752 33.384C183.352 35.4 185.8 37.128 186.952 38.856L142.456 129H157.72C152.248 123.528 152.104 115.752 157.432 105.384ZM188.248 41.304L213.016 90.408H164.632L188.248 41.304ZM335.929 129H344.857C343.705 116.184 335.641 107.832 320.665 103.944C308.713 101.64 299.641 98.472 293.449 94.728C287.113 90.984 284.089 85.656 284.089 78.888H305.977C313.897 78.888 321.529 76.296 328.873 71.256C336.073 66.216 339.817 60.6 339.817 54.552C339.817 47.496 336.217 41.448 329.161 36.552C321.961 31.656 313.465 29.208 303.385 29.208H256.297V129H269.401V31.512L300.217 31.368C304.681 31.368 308.713 32.088 312.313 33.384C315.913 34.824 318.937 37.272 321.529 41.016C324.121 44.76 325.417 49.368 325.417 54.984C325.417 58.584 324.841 61.608 323.977 64.2C323.113 66.792 321.817 68.952 320.377 70.392C318.937 71.832 317.065 72.984 314.761 73.848C312.457 74.712 310.153 75.288 307.993 75.576C305.833 75.864 303.241 75.864 300.361 75.864L282.937 76.008V78.744C282.937 85.944 284.521 91.992 287.689 96.888C290.857 101.928 294.745 105.816 299.497 108.408C304.249 111.144 309.001 113.448 313.897 115.32C318.793 117.336 323.257 119.352 327.577 121.512C331.753 123.816 334.489 126.264 335.929 129ZM358.116 29.208V129H412.836L430.98 93.288C426.372 98.904 422.34 103.512 418.596 107.256C414.852 111 410.532 114.456 405.636 117.912C400.74 121.368 395.412 123.816 389.652 125.4C383.892 126.984 377.7 127.56 371.076 127.272V29.208H358.116ZM443.322 105.384L449.514 92.568H499.914L518.346 129H534.042L482.346 29.208H459.018C459.738 30.072 461.898 31.512 465.642 33.384C469.242 35.4 471.69 37.128 472.842 38.856L428.346 129H443.61C438.138 123.528 437.994 115.752 443.322 105.384ZM474.138 41.304L498.906 90.408H450.522L474.138 41.304Z" fill="black"/>
</svg>
