<svg width="502" height="81" viewBox="0 0 502 81" fill="none" xmlns="http://www.w3.org/2000/svg">
<path d="M55.68 49.872V44.112C53.184 42.704 50.752 41.744 48.384 41.296C46.016 40.912 43.264 40.976 40.192 41.616C38.272 42.128 36.48 42.96 34.816 43.984C33.152 45.008 31.808 46.032 30.912 47.056C29.952 48.08 29.12 49.232 28.352 50.384C27.584 51.6 27.136 52.432 26.944 52.88C26.752 53.328 26.624 53.648 26.56 53.904C25.984 55.696 25.664 57.552 25.664 59.472C25.6 61.392 25.984 63.248 26.816 65.104C27.648 66.96 28.672 68.624 29.952 70.032C31.168 71.504 32.768 72.656 34.752 73.552C36.672 74.448 38.848 74.896 41.152 74.896C45.76 74.896 49.856 73.744 53.568 71.44C54.592 70.864 55.488 70.224 56.32 69.456C57.088 68.752 57.728 68.112 58.176 67.536C58.624 67.024 59.008 66.448 59.328 65.808C59.648 65.232 59.84 64.848 59.904 64.656L60.096 64.144H59.968C58.56 66.704 56.512 68.752 53.952 70.16C51.392 71.568 49.024 72.272 46.848 72.272C43.968 72.272 41.344 71.632 39.04 70.352C36.736 69.072 34.944 67.344 33.664 65.296C32.384 63.248 31.424 61.008 30.912 58.64C30.336 56.336 30.272 54.032 30.784 51.728C31.296 49.488 32.256 47.632 33.664 46.096C35.2 44.304 37.312 43.408 40.064 43.536C42.816 43.664 45.568 44.368 48.384 45.52C51.2 46.736 53.632 48.208 55.68 49.872ZM77.0885 41.36C72.4805 41.36 68.3845 43.088 64.7365 46.544C61.0885 50 59.2325 53.904 59.2325 58.384C59.1045 62.928 60.8325 66.832 64.3525 70.096C67.8085 73.36 71.8405 74.96 76.4485 74.96C81.0565 74.96 85.1525 73.36 88.8005 70.096C92.3845 66.832 94.2405 62.928 94.3045 58.384C94.3045 53.904 92.5765 49.936 89.1205 46.48C85.6645 43.088 81.6325 41.36 77.0885 41.36ZM77.7285 73.68C74.4645 73.68 71.5845 72.336 69.1525 69.584C66.6565 66.832 65.2485 63.12 64.9285 58.384C64.5445 53.392 65.3765 49.488 67.4885 46.672C69.5365 43.856 72.2885 42.384 75.6165 42.384C79.0085 42.384 81.9525 43.792 84.4485 46.48C86.9445 49.168 88.2885 53.136 88.4165 58.384C88.4165 63.44 87.4565 67.28 85.5365 69.84C83.6165 72.4 80.9925 73.68 77.7285 73.68ZM104.728 74H99.544V42H104.92L104.856 48.144C106.84 45.84 109.208 44.048 112.024 42.832C114.84 41.68 117.528 41.104 120.088 41.168C122.648 41.296 124.952 42 127 43.344C129.048 44.752 130.328 46.608 130.968 49.04C133.016 46.288 135.512 44.24 138.52 42.896C141.528 41.552 144.344 40.976 147.032 41.232C149.656 41.488 151.896 42.576 153.816 44.432C155.736 46.352 156.696 48.848 156.76 51.92V74H151.576V53.072C151.576 50.192 150.872 47.888 149.528 46.096C148.12 44.368 146.456 43.344 144.408 43.024C142.36 42.768 140.184 43.152 137.752 44.304C135.32 45.456 133.08 47.312 131.096 49.744C131.224 50.768 131.352 51.536 131.352 51.92V74H126.168V53.072C126.168 50.256 125.4 48.016 123.992 46.288C122.584 44.56 120.792 43.536 118.68 43.152C116.568 42.832 114.264 43.152 111.704 44.176C109.144 45.2 106.904 46.864 104.856 49.168L104.728 74ZM165.256 42L162.056 45.776H165.256V71.44L164.808 74H170.824L170.376 70.928V45.776H177.032L180.232 42H170.312V42.064L170.248 40.528C170.248 40.528 170.184 40.208 170.184 39.696C170.184 39.184 170.184 38.608 170.184 38.096C170.184 37.584 170.184 36.944 170.248 36.176C170.248 35.408 170.312 34.704 170.44 34C170.568 33.36 170.696 32.656 170.952 31.952C171.208 31.248 171.464 30.672 171.848 30.16C172.168 29.648 172.616 29.264 173.192 28.944C173.768 28.688 174.408 28.56 175.176 28.56C175.944 28.624 176.904 28.688 178.12 28.752C179.336 28.88 180.424 28.944 181.384 29.008C182.344 29.072 183.432 29.136 184.584 29.2C185.736 29.264 186.76 29.264 187.656 29.2C188.488 29.136 189.256 29.008 190.024 28.88C190.792 28.752 191.368 28.496 191.752 28.112C192.136 27.792 192.392 27.344 192.392 26.832C192.392 26.768 192.328 26.704 192.328 26.576C192.007 25.424 190.28 24.784 187.208 24.656C182.664 24.528 178.376 25.552 174.28 27.728C168.264 30.928 165.256 35.728 165.256 42ZM198.401 41.36C193.793 41.36 189.697 43.088 186.049 46.544C182.401 50 180.545 53.904 180.545 58.384C180.417 62.928 182.145 66.832 185.665 70.096C189.121 73.36 193.153 74.96 197.761 74.96C202.369 74.96 206.465 73.36 210.113 70.096C213.697 66.832 215.553 62.928 215.617 58.384C215.617 53.904 213.889 49.936 210.433 46.48C206.977 43.088 202.945 41.36 198.401 41.36ZM199.041 73.68C195.777 73.68 192.897 72.336 190.465 69.584C187.969 66.832 186.561 63.12 186.241 58.384C185.857 53.392 186.689 49.488 188.801 46.672C190.849 43.856 193.601 42.384 196.929 42.384C200.321 42.384 203.265 43.792 205.761 46.48C208.257 49.168 209.601 53.136 209.729 58.384C209.729 63.44 208.769 67.28 206.849 69.84C204.929 72.4 202.305 73.68 199.041 73.68ZM220.15 70.16L219.958 74H225.654L225.462 70.16V52.944C225.462 52.368 225.654 51.792 225.974 51.152C226.23 50.576 226.742 49.872 227.51 49.104C228.214 48.336 229.366 47.696 230.966 47.184C232.502 46.672 234.422 46.416 236.726 46.288L237.686 46.224C238.326 46.224 239.03 46.16 239.798 46.032C240.566 45.904 241.014 45.712 241.206 45.456L243.638 42.256C242.23 42 240.502 41.936 238.39 42C234.934 42 231.926 43.216 229.43 45.52C226.87 47.824 225.59 49.872 225.462 51.6V42H220.214V49.936L220.15 70.16ZM271.669 64.528H271.093C269.557 66.896 267.829 68.816 265.845 70.288C262.709 72.592 259.893 73.36 257.397 72.72C255.029 72.144 253.877 70.48 253.941 67.728L254.133 45.712H264.181L267.381 42H254.133V34.256L244.789 45.712H248.949V65.872C248.949 67.984 249.461 69.776 250.549 71.248C251.573 72.72 252.981 73.68 254.709 74.128C256.437 74.576 258.293 74.64 260.277 74.256C262.261 73.872 264.309 72.848 266.357 71.12C268.405 69.456 270.133 67.216 271.669 64.528ZM293.109 55.056V54.16H270.005V55.056H293.109ZM304.704 42L299.712 58.192H299.84C300.48 56.656 301.44 54.992 302.592 53.328C303.744 51.664 305.152 50 306.752 48.336C308.288 46.672 310.144 45.328 312.192 44.304C314.24 43.28 316.352 42.704 318.4 42.704H327.36L300.48 74H330.496L336.448 52.88H336.384C335.424 55.44 334.336 57.872 333.184 60.048C331.968 62.224 330.56 64.4 328.96 66.512C327.36 68.624 325.504 70.288 323.456 71.504C321.344 72.72 319.168 73.296 316.928 73.296H307.776L334.784 42H304.704ZM358.151 41.36C353.543 41.36 349.447 43.088 345.799 46.544C342.151 50 340.295 53.904 340.295 58.384C340.167 62.928 341.895 66.832 345.415 70.096C348.871 73.36 352.903 74.96 357.511 74.96C362.119 74.96 366.215 73.36 369.863 70.096C373.447 66.832 375.303 62.928 375.367 58.384C375.367 53.904 373.639 49.936 370.183 46.48C366.727 43.088 362.695 41.36 358.151 41.36ZM358.791 73.68C355.527 73.68 352.647 72.336 350.215 69.584C347.719 66.832 346.311 63.12 345.991 58.384C345.607 53.392 346.439 49.488 348.551 46.672C350.599 43.856 353.351 42.384 356.679 42.384C360.071 42.384 363.015 43.792 365.511 46.48C368.007 49.168 369.351 53.136 369.479 58.384C369.479 63.44 368.519 67.28 366.599 69.84C364.679 72.4 362.055 73.68 358.791 73.68ZM385.148 74H379.964V42H385.34L385.276 48.144C386.94 46.096 388.988 44.496 391.292 43.28C393.596 42.128 395.9 41.424 398.14 41.296C400.316 41.168 402.428 41.488 404.348 42.128C406.268 42.768 407.868 43.984 409.084 45.712C410.236 47.44 410.876 49.488 410.94 51.92V74H405.756V53.072C405.756 50.256 405.052 48.016 403.708 46.288C402.3 44.56 400.636 43.536 398.652 43.152C396.604 42.832 394.428 43.152 391.996 44.176C389.564 45.2 387.324 46.8 385.276 49.04L385.148 74ZM449.392 64.144H449.008C447.6 66.768 445.616 68.816 443.184 70.224C440.688 71.632 438.384 72.336 436.336 72.336C433.456 72.336 430.896 71.696 428.656 70.352C426.352 69.008 424.624 67.28 423.408 65.232C422.128 63.184 421.296 61.008 420.784 58.64C420.272 56.272 420.272 54.032 420.72 51.856H439.28C444.144 51.728 446.64 50.192 446.64 47.248C446.64 47.056 446.576 46.864 446.576 46.608C446.512 46.416 446.384 46.096 446.192 45.584C445.936 45.072 445.68 44.624 445.296 44.24C444.912 43.856 444.336 43.408 443.568 42.96C442.736 42.512 441.776 42.128 440.752 41.872C436.912 40.976 433.392 40.912 430.192 41.616C428.272 42.128 426.416 42.96 424.752 43.984C423.088 45.008 421.744 46.032 420.784 47.056C419.824 48.08 418.992 49.232 418.224 50.384C417.456 51.6 416.944 52.432 416.752 52.88C416.496 53.328 416.368 53.648 416.304 53.904C415.728 55.696 415.408 57.552 415.408 59.472C415.408 61.392 415.792 63.248 416.688 65.104C417.52 66.96 418.544 68.624 419.824 70.032C421.104 71.504 422.704 72.656 424.688 73.552C426.672 74.448 428.848 74.896 431.152 74.896C435.376 74.896 439.344 73.744 442.928 71.44C444.464 70.544 445.808 69.392 446.896 68.112C447.984 66.832 448.624 65.936 448.88 65.424C449.136 64.912 449.264 64.464 449.392 64.144ZM423.152 46.736C424.688 44.944 426.928 43.728 430 43.088C433.072 42.512 435.824 42.896 438.256 44.304C439.216 44.944 439.984 45.648 440.496 46.544C441.008 47.44 441.136 48.272 440.816 49.04C440.432 49.808 439.6 50.256 438.256 50.32L434.928 50.512L420.912 50.96C421.296 49.36 422.064 47.952 423.152 46.736Z" fill="black"/>
<path d="M8.4 23.552C7.968 24.368 7.512 24.968 7.032 25.328C6.552 25.688 6.072 25.832 5.64 25.784C5.208 25.736 4.752 25.592 4.32 25.376C3.864 25.184 3.432 24.944 3.024 24.68C2.592 24.44 2.208 24.248 1.848 24.104C1.488 23.96 1.152 24.008 0.816 24.2C0.48 24.392 0.216 24.8 0 25.4C0.96 25.76 1.824 26 2.592 26.144C3.36 26.288 4.224 26.288 5.136 26.144C6.048 26 6.912 25.664 7.704 25.112C8.064 24.872 8.472 24.464 8.928 23.936C9.384 23.408 9.696 22.832 9.888 22.208C10.08 21.488 9.96 20.936 9.528 20.504C9.072 20.072 8.448 19.76 7.68 19.568C6.912 19.376 6.144 19.16 5.376 18.944C4.608 18.752 3.984 18.416 3.504 17.936C3.024 17.48 2.904 16.88 3.096 16.112C3.36 15.344 3.72 14.792 4.2 14.48C4.656 14.192 5.136 14.096 5.64 14.216C6.12 14.336 6.648 14.48 7.224 14.672C7.8 14.864 8.328 15.056 8.808 15.224C9.288 15.416 9.72 15.416 10.152 15.248C10.56 15.08 10.872 14.696 11.088 14.072C10.104 13.736 9.096 13.544 8.064 13.52C7.032 13.496 6.072 13.616 5.184 13.88C4.296 14.144 3.504 14.576 2.832 15.2C2.16 15.824 1.704 16.592 1.464 17.456C1.272 18.128 1.32 18.68 1.656 19.112C1.968 19.544 2.424 19.856 3.024 20.048C3.624 20.24 4.272 20.432 4.992 20.624C5.688 20.816 6.336 21.008 6.936 21.176C7.536 21.368 7.992 21.656 8.28 22.04C8.568 22.448 8.592 22.952 8.4 23.552ZM26.0314 22.136H25.8874L24.9514 23.6C24.7114 23.984 24.4714 24.32 24.2314 24.608C23.4394 25.568 22.8394 25.976 22.4554 25.856C21.9514 25.736 22.0474 24.824 22.7434 23.12L26.1034 13.928H24.1594L21.4234 21.32C20.0554 23.336 18.6154 24.632 17.0794 25.208C15.8074 25.688 14.8234 25.616 14.1274 24.944C13.3834 24.272 13.2874 23.216 13.8154 21.776L15.6154 16.856C15.9034 15.944 15.9034 15.176 15.6154 14.552C15.2794 13.904 14.7514 13.616 14.0314 13.712C13.0474 13.856 12.1594 14.648 11.3914 16.064L10.3594 17.792H10.5034L11.4394 16.328C11.6554 15.992 11.8954 15.656 12.1354 15.368C12.9034 14.408 13.5034 13.976 13.9354 14.072C14.4634 14.168 14.3674 15.08 13.6714 16.808L11.7274 22.208C11.6794 22.304 11.6554 22.376 11.6554 22.424C11.2234 23.816 11.4634 24.872 12.3994 25.568C13.2874 26.264 14.4874 26.384 15.9994 25.928C17.9914 25.328 19.7674 23.912 21.3034 21.656L20.7994 23.072C20.4874 23.984 20.4874 24.752 20.7994 25.376C21.1114 26.048 21.6394 26.336 22.3834 26.216C23.3434 26.072 24.2314 25.304 24.9994 23.864L26.0314 22.136ZM27.1489 23.816L30.0769 15.56C32.5009 14.216 34.3009 13.904 35.5009 14.672C36.4849 15.32 36.8929 16.52 36.7249 18.296C36.5329 20.12 35.8369 21.776 34.6369 23.312C33.1969 25.184 31.5169 26.096 29.6209 26.096C28.7329 26.096 28.0369 25.904 27.5089 25.52C26.9809 25.136 26.8609 24.56 27.1489 23.816ZM26.5489 16.496L28.1569 15.56L21.7969 33.008L24.3889 31.328L26.8129 24.68C26.7889 24.992 26.8849 25.256 27.0769 25.496C27.2689 25.736 27.4849 25.904 27.7249 26C27.9649 26.096 28.2289 26.192 28.5649 26.24C28.8769 26.288 29.0929 26.336 29.2369 26.336C29.3569 26.336 29.4529 26.336 29.5489 26.336C30.2209 26.336 30.9649 26.168 31.7809 25.832C32.5969 25.496 33.2929 25.112 33.8929 24.68C34.4689 24.272 35.0689 23.792 35.6929 23.24C36.2929 22.688 36.7009 22.304 36.8929 22.088C37.0849 21.872 37.2529 21.704 37.3729 21.56C38.0929 20.672 38.5969 19.784 38.8849 18.872C39.1729 17.984 39.2449 17.192 39.1009 16.472C38.9569 15.776 38.6209 15.176 38.1169 14.696C37.6129 14.216 36.9889 13.88 36.2209 13.688C35.4529 13.52 34.5649 13.568 33.5089 13.808C32.4529 14.048 31.3489 14.528 30.1969 15.224L30.8929 13.352L26.5489 16.496ZM51.3561 13.952C50.0361 13.616 48.7401 13.592 47.4441 13.856C46.6521 14.048 45.8601 14.36 45.0921 14.744C44.3241 15.128 43.6761 15.512 43.1961 15.896C42.6921 16.28 42.2121 16.712 41.7561 17.144C41.3001 17.6 41.0121 17.912 40.8681 18.08C40.7241 18.248 40.6281 18.368 40.5561 18.464C39.7401 19.568 39.2601 20.744 39.1641 21.944C39.0441 23.168 39.3561 24.2 40.0761 25.064C40.7961 25.928 41.8521 26.336 43.2681 26.336C44.8521 26.336 46.4841 25.904 48.1401 25.04C48.8601 24.704 49.5081 24.272 50.1081 23.792C50.6841 23.312 51.0681 22.976 51.2121 22.784C51.3561 22.592 51.4761 22.424 51.5721 22.304H51.4281C50.5401 23.288 49.5321 24.056 48.4041 24.584C47.2761 25.112 46.3161 25.376 45.5481 25.376C44.1321 25.376 43.0761 24.968 42.4041 24.104C41.7081 23.264 41.3961 22.256 41.4681 21.104C41.5401 19.952 41.8761 18.8 42.5001 17.696H49.4601C51.3081 17.648 52.4361 17.072 52.8441 15.968C52.8681 15.896 52.8921 15.824 52.9161 15.728C52.9161 15.656 52.9161 15.536 52.9161 15.344C52.8921 15.152 52.8441 14.984 52.7481 14.84C52.6521 14.696 52.5081 14.528 52.2681 14.36C52.0281 14.192 51.7161 14.048 51.3561 13.952ZM49.2681 17.12L47.9961 17.192L42.6921 17.36C43.0761 16.76 43.5321 16.232 44.1081 15.776C44.9241 15.104 45.9321 14.648 47.1801 14.408C48.4041 14.192 49.3881 14.336 50.1081 14.864C50.3721 15.104 50.5401 15.368 50.6361 15.704C50.7081 16.04 50.6361 16.352 50.3961 16.64C50.1561 16.928 49.7961 17.096 49.2681 17.12ZM58.2253 16.952C58.5133 16.04 58.5133 15.272 58.2253 14.648C57.8893 14 57.3613 13.712 56.6413 13.808C55.6573 13.952 54.7693 14.744 54.0013 16.16L52.9693 17.888H53.1133L54.0493 16.424C54.2653 16.088 54.5053 15.752 54.7453 15.464C55.5133 14.504 56.1133 14.072 56.5453 14.168C57.0733 14.264 56.9773 15.176 56.2813 16.904L56.0893 17.456L53.5453 24.56L52.9453 26H55.0813L55.5373 24.56L57.2413 19.952C57.2413 19.952 57.2893 19.784 57.4093 19.448L57.7453 18.464C57.8413 18.128 58.0093 17.744 58.2253 17.312C58.4413 16.88 58.6573 16.496 58.8973 16.16C59.1373 15.824 59.4013 15.56 59.7373 15.32C60.0733 15.104 60.4093 14.984 60.7453 14.984C61.1293 14.984 61.5373 15.032 61.9933 15.08C62.4253 15.128 62.7613 15.176 63.0013 15.2C63.2413 15.224 63.4573 15.224 63.6973 15.2C63.9373 15.176 64.1053 15.104 64.2493 14.96C64.3933 14.816 64.5133 14.624 64.6093 14.336C64.7053 14.096 64.5613 13.904 64.1773 13.784C63.4333 13.568 62.4733 13.664 61.3213 14.072C59.6893 14.672 58.6573 15.632 58.2253 16.952ZM74.9513 23.864L75.9833 22.136H75.8393L74.9033 23.6C74.6633 23.96 74.4473 24.272 74.2073 24.56C73.4393 25.52 72.8393 25.952 72.4073 25.856C71.8793 25.76 71.9513 24.848 72.6713 23.12C72.7673 22.928 73.3193 21.392 74.3513 18.536C74.6393 17.72 74.6153 16.928 74.2793 16.184C73.9433 15.44 73.3913 14.864 72.6233 14.48C71.8553 14.096 70.9433 13.856 69.9113 13.736C68.8793 13.616 67.8473 13.76 66.7913 14.168L63.9353 16.592L67.9673 15.272C69.9353 14.624 71.3993 14.456 72.3353 14.744C73.2473 15.032 73.4393 15.872 72.9113 17.264C72.8393 17.456 72.5993 17.648 72.2153 17.84C71.8313 18.032 71.3993 18.224 70.9673 18.368C70.5113 18.512 70.0073 18.68 69.4553 18.824C68.8793 18.968 68.4953 19.064 68.2793 19.112C68.0633 19.16 67.8953 19.208 67.7753 19.232C65.1353 19.736 63.2153 20.696 61.9913 22.112C61.1033 23.144 60.8152 24.08 61.1513 24.896C61.4633 25.76 62.3033 26.192 63.6713 26.192C64.5113 26.192 65.3993 25.928 66.3353 25.4C67.2713 24.872 68.1593 24.2 68.9753 23.36C69.7913 22.52 70.3913 21.872 70.7753 21.416C71.1593 20.96 71.4953 20.504 71.8313 20.072L71.9033 19.976L71.1113 22.016L70.7273 23.072C70.4153 23.984 70.4153 24.752 70.7273 25.376C71.0393 26.048 71.5673 26.312 72.3113 26.216C73.2713 26.072 74.1593 25.304 74.9513 23.864ZM63.0953 23.432C63.0473 23.12 63.0473 22.808 63.1193 22.52C63.1673 22.232 63.2873 21.992 63.4793 21.752C63.6473 21.536 63.8393 21.32 64.0553 21.128C64.2713 20.936 64.5353 20.768 64.8233 20.624C65.1113 20.48 65.3753 20.336 65.6153 20.216C65.8553 20.12 66.1433 20.024 66.4313 19.928C66.7193 19.832 66.9593 19.76 67.1513 19.712C67.3433 19.664 67.5353 19.616 67.7513 19.568L68.0393 19.496C68.4713 19.4 68.9033 19.328 69.2873 19.232C69.6713 19.136 70.0073 19.064 70.2953 18.968C70.5833 18.872 70.8473 18.8 71.0873 18.704C71.3273 18.632 71.5193 18.56 71.6873 18.488C71.8313 18.416 71.9753 18.344 72.1193 18.272C72.2393 18.224 72.3353 18.152 72.4073 18.104C72.4793 18.056 72.5513 18.032 72.5993 17.984C72.6473 17.936 72.6713 17.912 72.6953 17.888L72.7193 17.84L72.4313 18.56C72.0953 19.376 71.4233 20.312 70.3673 21.368C68.8313 22.928 67.3672 23.984 65.9273 24.536C64.2473 25.208 63.3113 24.824 63.0953 23.432ZM84.0051 6.656L82.0371 8.408V23.888C82.0851 24.8 82.3251 25.376 82.8051 25.616C83.2851 25.88 84.1491 26 85.4451 26C84.5331 25.808 84.0531 24.608 84.0051 22.352C83.8611 17.12 83.8611 11.888 84.0051 6.656ZM89.1881 14.168L87.2201 16.592L90.7721 15.272C92.5001 14.624 93.8921 14.456 94.9241 14.744C95.9561 15.032 96.4601 15.872 96.4361 17.264C96.4361 17.36 96.3641 17.48 96.2441 17.576C96.1241 17.696 95.9801 17.792 95.8121 17.888C95.6201 17.984 95.4041 18.104 95.1401 18.2C94.8761 18.296 94.6121 18.392 94.3721 18.464C94.1321 18.56 93.8441 18.632 93.5561 18.728C93.2681 18.824 93.0041 18.896 92.7881 18.944C92.5721 18.992 92.3561 19.04 92.1401 19.088L91.7081 19.184C91.6361 19.208 91.5881 19.232 91.5401 19.232C89.1881 19.712 87.6521 20.624 86.8841 21.968C86.3081 22.976 86.3081 23.936 86.9081 24.8C87.5081 25.736 88.5161 26.192 89.9561 26.192C90.8441 26.192 91.7321 25.904 92.6201 25.304C94.0601 24.344 95.3321 22.76 96.3881 20.552L96.4121 20.48L96.3641 22.016V23.888C96.4121 24.8 96.6521 25.376 97.1321 25.616C97.6121 25.88 98.5001 26 99.7961 26C98.8361 25.808 98.3561 24.584 98.3561 22.352V22.016C98.3321 21.104 98.3321 19.928 98.3321 18.536C98.3321 17.864 98.1161 17.24 97.7321 16.616C97.3481 15.992 96.8201 15.488 96.1481 15.056C95.4761 14.648 94.7561 14.312 93.9881 14.072C93.1961 13.832 92.3801 13.712 91.5161 13.712C90.6521 13.736 89.8841 13.88 89.1881 14.168ZM88.5401 23.192C88.3481 22.856 88.2281 22.52 88.2281 22.208C88.2041 21.896 88.2521 21.632 88.3481 21.392C88.4441 21.176 88.5881 20.96 88.8041 20.768C89.0201 20.576 89.2361 20.408 89.4761 20.288C89.6921 20.168 89.9561 20.048 90.2441 19.952C90.5321 19.856 90.7721 19.76 90.9641 19.712L91.5641 19.568C91.7561 19.52 91.8761 19.496 91.9001 19.496C92.6681 19.328 93.3401 19.16 93.9401 18.968C94.5401 18.8 94.9961 18.656 95.2841 18.512C95.5721 18.368 95.8121 18.248 96.0041 18.128C96.1961 18.032 96.3161 17.936 96.3641 17.888L96.4361 17.84L96.4121 18.56C96.3641 19.616 95.8361 20.768 94.8041 22.04C93.7481 23.312 92.6681 24.128 91.5161 24.488C90.3641 24.872 89.3561 24.44 88.5401 23.192ZM115.751 22.448H115.535C114.959 23.336 114.311 24.056 113.567 24.608C112.391 25.472 111.335 25.76 110.399 25.52C109.511 25.304 109.079 24.68 109.103 23.648L109.175 15.392H112.943L114.143 14H109.175V11.096L105.671 15.392H107.231V22.952C107.231 23.744 107.423 24.416 107.831 24.968C108.215 25.52 108.743 25.88 109.391 26.048C110.039 26.216 110.735 26.24 111.479 26.096C112.223 25.952 112.991 25.568 113.759 24.92C114.527 24.296 115.175 23.456 115.751 22.448ZM116.659 21.464L116.635 14H118.627V21.032C118.627 22.136 118.891 23.072 119.443 23.864C119.995 24.656 120.667 25.184 121.459 25.448C122.227 25.712 123.091 25.64 124.027 25.208C124.963 24.8 125.779 24.008 126.475 22.856V22.328L126.523 14H128.467V22.352C128.467 24.608 128.947 25.832 129.907 26.024C128.611 26.024 127.723 25.808 127.243 25.352C126.763 24.896 126.523 24.2 126.475 23.264C125.971 24.128 125.371 24.8 124.675 25.304C123.979 25.808 123.283 26.12 122.563 26.216C121.843 26.336 121.147 26.312 120.427 26.144C119.707 25.976 119.083 25.688 118.531 25.256C117.979 24.848 117.523 24.32 117.187 23.648C116.827 22.976 116.659 22.256 116.659 21.464ZM133.344 14.168L131.376 16.592L134.928 15.272C136.656 14.624 138.048 14.456 139.08 14.744C140.112 15.032 140.616 15.872 140.592 17.264C140.592 17.36 140.52 17.48 140.4 17.576C140.28 17.696 140.136 17.792 139.968 17.888C139.776 17.984 139.56 18.104 139.296 18.2C139.032 18.296 138.768 18.392 138.528 18.464C138.288 18.56 138 18.632 137.712 18.728C137.424 18.824 137.16 18.896 136.944 18.944C136.728 18.992 136.512 19.04 136.296 19.088L135.864 19.184C135.792 19.208 135.744 19.232 135.696 19.232C133.344 19.712 131.808 20.624 131.04 21.968C130.464 22.976 130.464 23.936 131.064 24.8C131.664 25.736 132.672 26.192 134.112 26.192C135 26.192 135.888 25.904 136.776 25.304C138.216 24.344 139.488 22.76 140.544 20.552L140.568 20.48L140.52 22.016V23.888C140.568 24.8 140.808 25.376 141.288 25.616C141.768 25.88 142.656 26 143.952 26C142.992 25.808 142.512 24.584 142.512 22.352V22.016C142.488 21.104 142.488 19.928 142.488 18.536C142.488 17.864 142.272 17.24 141.888 16.616C141.504 15.992 140.976 15.488 140.304 15.056C139.632 14.648 138.912 14.312 138.144 14.072C137.352 13.832 136.536 13.712 135.672 13.712C134.808 13.736 134.04 13.88 133.344 14.168ZM132.696 23.192C132.504 22.856 132.384 22.52 132.384 22.208C132.36 21.896 132.408 21.632 132.504 21.392C132.6 21.176 132.744 20.96 132.96 20.768C133.176 20.576 133.392 20.408 133.632 20.288C133.848 20.168 134.112 20.048 134.4 19.952C134.688 19.856 134.928 19.76 135.12 19.712L135.72 19.568C135.912 19.52 136.032 19.496 136.056 19.496C136.824 19.328 137.496 19.16 138.096 18.968C138.696 18.8 139.152 18.656 139.44 18.512C139.728 18.368 139.968 18.248 140.16 18.128C140.352 18.032 140.472 17.936 140.52 17.888L140.592 17.84L140.568 18.56C140.52 19.616 139.992 20.768 138.96 22.04C137.904 23.312 136.824 24.128 135.672 24.488C134.52 24.872 133.512 24.44 132.696 23.192Z" fill="black"/>
</svg>
