<svg width="56" height="28" viewBox="0 0 56 28" fill="none" xmlns="http://www.w3.org/2000/svg">
<rect width="56" height="28" fill="#F4F4F4"/>
<g clip-path="url(#clip0)">
<path d="M6 16.6812C6.07984 16.374 6.16588 16.0685 6.23884 15.7599C6.72787 13.6923 7.21347 11.6236 7.70112 9.55566C7.79301 9.16647 8.00638 9.00447 8.42143 9.00413C9.20643 9.00313 9.99177 8.99607 10.7764 9.00481C11.4293 9.01187 12.0825 9.03472 12.7133 9.23234C13.7268 9.54961 14.2286 10.2675 14.1945 11.3084C14.1508 12.6366 13.4023 13.4681 12.2246 13.9908C11.3746 14.3678 10.4643 14.4784 9.54094 14.4613C8.81548 14.4478 8.62688 14.6001 8.49439 15.277C8.40422 15.7374 8.28136 16.1918 8.16744 16.6472C8.09001 16.9571 7.87767 17.1181 7.54867 17.1215C7.19901 17.1252 6.84936 17.1137 6.50005 17.1258C6.27979 17.1336 6.10944 17.0754 6 16.8822C6 16.8153 6 16.7484 6 16.6812ZM10.4488 10.4927C9.77599 10.4638 9.57501 10.6049 9.44492 11.2472C9.36301 11.6522 9.25185 12.0515 9.16341 12.4551C9.10456 12.724 9.22467 12.9176 9.47417 12.9331C10.0086 12.9663 10.5397 12.9448 11.0414 12.7297C11.6901 12.4521 12.0229 11.8556 11.8915 11.2119C11.844 10.9787 11.7139 10.8066 11.4985 10.6917C11.1691 10.5162 10.8108 10.4971 10.4488 10.4927Z" fill="black"/>
<path d="M31.7547 9.07377C32.3731 9.07377 32.9926 9.05293 33.6096 9.07982C34.1589 9.10368 34.6999 9.20182 35.191 9.47103C35.6821 9.7399 36.0107 10.1318 36.1185 10.6766C36.3095 11.6429 36.0961 12.5063 35.3892 13.2286C34.9019 13.7263 34.2959 14.0311 33.6248 14.2214C32.8594 14.4382 32.074 14.4909 31.2822 14.4889C30.8427 14.4879 30.6396 14.6499 30.5395 15.073C30.4152 15.5997 30.292 16.1263 30.1633 16.652C30.0866 16.9662 29.8619 17.1377 29.5356 17.139C29.1574 17.1403 28.7792 17.1403 28.4009 17.1377C28.1287 17.1356 27.9814 16.9515 28.0413 16.6964C28.5968 14.3343 29.1519 11.9722 29.7066 9.61017C29.8023 9.2035 30.0119 9.0415 30.4476 9.04116C30.8833 9.04083 31.3186 9.04116 31.7543 9.04116C31.7547 9.05192 31.7547 9.06267 31.7547 9.07377ZM31.8985 12.9688C31.8996 12.9768 31.9002 12.9849 31.9013 12.993C32.1553 12.961 32.4144 12.9493 32.6625 12.8925C33.2531 12.7573 33.7167 12.4653 33.8832 11.8506C34.0615 11.1918 33.8196 10.7304 33.1667 10.5872C32.8205 10.5112 32.4523 10.5022 32.095 10.5102C31.7688 10.5176 31.5788 10.7048 31.5003 11.0194C31.3751 11.5222 31.2553 12.0263 31.1383 12.5312C31.0874 12.7503 31.2371 12.9472 31.4704 12.9667C31.6119 12.9782 31.7557 12.9688 31.8985 12.9688Z" fill="black"/>
<path d="M21.8166 19.9971C21.6047 19.9971 21.3927 19.9988 21.1807 19.9964C20.958 19.9937 20.8692 19.8674 20.9484 19.665C20.9728 19.6029 21.0082 19.5444 21.0423 19.4862C21.3469 18.9673 21.6456 18.445 21.9608 17.9325C22.0765 17.7446 22.1309 17.5534 22.0999 17.343C22.0056 16.7017 21.9127 16.0601 21.8029 15.4215C21.5716 14.0775 21.329 12.7351 21.0939 11.3914C21.0444 11.1084 21.1831 10.9488 21.4742 10.9458C21.8239 10.9421 22.1735 10.9414 22.5228 10.9454C22.8976 10.9498 23.1358 11.1505 23.197 11.5074C23.365 12.4881 23.5305 13.4692 23.7026 14.4492C23.7153 14.5225 23.7745 14.588 23.812 14.6573C23.8705 14.6025 23.9452 14.5571 23.9848 14.4912C24.5853 13.4937 25.1821 12.4942 25.7774 11.4936C26.0005 11.1185 26.3157 10.9179 26.7741 10.934C27.1805 10.9485 27.5877 10.9357 27.9948 10.9377C28.2064 10.9387 28.2646 11.012 28.1975 11.2109C28.1565 11.3319 28.098 11.4492 28.0313 11.5591C26.4351 14.1961 24.8365 16.8318 23.2387 19.4681C23.027 19.8173 22.7321 20.0213 22.2985 19.9984C22.1381 19.99 21.977 19.9971 21.8166 19.9971Z" fill="black"/>
<path d="M17.6084 16.4894C17.364 16.6413 17.1586 16.7828 16.9404 16.9025C16.2112 17.3017 15.4361 17.4439 14.6233 17.2117C13.9033 17.006 13.5044 16.3785 13.5437 15.6468C13.5946 14.699 14.107 14.0981 14.9677 13.7301C15.6271 13.4481 16.3275 13.3429 17.0337 13.2632C17.4146 13.2202 17.797 13.1907 18.179 13.1554C18.3982 13.1352 18.4567 13.0707 18.4505 12.8539C18.443 12.5827 18.3067 12.3971 18.0265 12.3074C17.4687 12.1289 16.896 12.134 16.3275 12.2318C15.9458 12.2973 15.571 12.4049 15.1959 12.504C14.934 12.5732 14.8322 12.4956 14.8865 12.2358C14.9357 12.0005 14.9911 11.766 15.0603 11.5357C15.1398 11.2716 15.3308 11.1133 15.6072 11.0588C16.481 10.8864 17.362 10.8047 18.2544 10.8659C18.7014 10.8965 19.1429 10.9519 19.5645 11.1109C20.2453 11.368 20.5842 11.8634 20.4741 12.5642C20.3678 13.2414 20.1991 13.9096 20.0474 14.5797C19.8946 15.2559 19.7294 15.9291 19.5687 16.6037C19.4819 16.967 19.2569 17.1394 18.8707 17.1404C18.5958 17.1411 18.3208 17.1414 18.0455 17.1414C17.6542 17.1411 17.5279 16.9959 17.5915 16.6222C17.5974 16.5906 17.6001 16.558 17.6084 16.4894ZM18.1336 14.2487C17.4446 14.3314 16.7814 14.3337 16.1699 14.6039C15.9403 14.7054 15.7634 14.8701 15.6808 15.1161C15.5232 15.5873 15.6791 15.8969 16.1416 15.996C16.717 16.1194 17.2309 15.9537 17.6948 15.6327C17.7908 15.5662 17.8558 15.43 17.892 15.3131C17.9711 15.0573 18.0238 14.7935 18.0847 14.5323C18.1036 14.453 18.1129 14.3713 18.1336 14.2487Z" fill="black"/>
<path d="M39.6419 16.4675C39.5245 16.5384 39.4467 16.5804 39.3741 16.6301C38.9488 16.9215 38.4969 17.1591 37.9807 17.2526C37.5147 17.3369 37.048 17.3477 36.591 17.1951C36.0132 17.0022 35.5076 16.4587 35.5699 15.6447C35.6129 15.0821 35.784 14.5944 36.2166 14.2153C36.6443 13.8406 37.1619 13.614 37.716 13.5102C38.4322 13.3761 39.1594 13.3001 39.8824 13.201C40.007 13.1838 40.133 13.1791 40.2579 13.1647C40.3815 13.1502 40.453 13.0833 40.4671 12.9586C40.5026 12.6481 40.3584 12.3994 40.0514 12.308C39.8294 12.2418 39.5961 12.1924 39.3648 12.1772C38.6487 12.1302 37.9525 12.2445 37.2752 12.4723C37.2428 12.4831 37.2101 12.4938 37.1771 12.5032C36.953 12.5671 36.8512 12.474 36.9035 12.2468C36.9544 12.024 37.0067 11.8008 37.0687 11.5807C37.143 11.3172 37.3154 11.1468 37.5945 11.0853C38.5227 10.8799 39.4636 10.8332 40.409 10.8937C40.8526 10.9219 41.2945 10.9962 41.704 11.1881C42.2106 11.4257 42.478 11.8062 42.4832 12.3665C42.4876 12.8602 42.3379 13.3247 42.2295 13.7962C42.0124 14.742 41.7797 15.6847 41.5529 16.6285C41.4745 16.9545 41.2477 17.1339 40.9056 17.137C40.6248 17.1397 40.3439 17.1383 40.0631 17.1376C39.6749 17.137 39.5448 16.9871 39.6119 16.6197C39.6174 16.5874 39.6243 16.5555 39.6419 16.4675ZM38.5251 16.0729C38.9629 16.0537 39.3432 15.8927 39.6956 15.6652C39.7757 15.6135 39.8532 15.52 39.8783 15.4313C39.9754 15.0881 40.0514 14.7389 40.1344 14.3918C40.1598 14.2849 40.1054 14.2452 40.0043 14.254C39.8962 14.263 39.7878 14.2721 39.6811 14.2896C39.2485 14.3612 38.8104 14.4116 38.3861 14.5161C37.8771 14.6415 37.6221 14.9887 37.6265 15.4615C37.6289 15.7311 37.7559 15.9085 38.0223 15.9805C38.1861 16.0248 38.3572 16.043 38.5251 16.0729Z" fill="black"/>
<path d="M43.6178 17.137C43.4633 17.137 43.3084 17.139 43.1539 17.1367C42.8187 17.1313 42.6748 16.9545 42.7478 16.6342C43.0148 15.4602 43.2843 14.2866 43.5514 13.1126C43.8184 11.939 44.08 10.764 44.3508 9.59102C44.4272 9.25997 44.6423 9.10974 44.9934 9.10974C45.32 9.10974 45.6462 9.10873 45.9728 9.11007C46.2571 9.11108 46.4026 9.29089 46.3414 9.55977C45.809 11.9081 45.2766 14.2563 44.7449 16.6046C44.6654 16.9555 44.4479 17.1319 44.0817 17.1367C43.9272 17.1387 43.7727 17.137 43.6178 17.137Z" fill="black"/>
<path d="M48.5291 9.51983C48.8443 9.34876 48.9627 9.35515 49.1812 9.53765C49.353 9.49059 49.5054 9.43346 49.6634 9.4096C49.8306 9.38439 49.9504 9.48387 49.9666 9.63881C49.9951 9.90937 49.9944 10.1833 50 10.4559C50.0003 10.4794 49.9549 10.5039 49.9304 10.5281C49.9032 10.4938 49.8551 10.4609 49.8527 10.4249C49.8382 10.2135 49.8413 10.0011 49.8248 9.79005C49.8096 9.59579 49.7246 9.52051 49.565 9.53261C49.3688 9.54739 49.2308 9.67343 49.2318 9.83408C49.2332 10.0294 49.2366 10.225 49.2304 10.4202C49.2294 10.4572 49.1871 10.4928 49.1637 10.5291C49.133 10.4928 49.0773 10.4575 49.0756 10.4199C49.0653 10.2082 49.0711 9.99574 49.0649 9.78367C49.0597 9.61394 48.982 9.53496 48.8326 9.53126C48.6657 9.52723 48.4706 9.66066 48.4664 9.79106C48.4602 9.98633 48.4695 10.1823 48.4596 10.3772C48.4568 10.4286 48.4072 10.4774 48.3794 10.5274C48.356 10.4797 48.314 10.4323 48.3126 10.3839C48.3061 10.1218 48.3064 9.85895 48.3119 9.5968C48.3129 9.54336 48.3449 9.49059 48.3625 9.43749C48.4134 9.46236 48.4647 9.4879 48.5291 9.51983Z" fill="black"/>
<path d="M47.3982 9.47007C47.423 9.39176 47.4471 9.29933 47.4818 9.21094C47.497 9.17229 47.5338 9.1417 47.561 9.10742C47.584 9.14473 47.6188 9.17968 47.6267 9.22001C47.6381 9.27782 47.6295 9.33933 47.6295 9.41226C47.741 9.41797 47.8322 9.4173 47.9213 9.4294C47.9592 9.43444 47.9932 9.46603 48.029 9.48586C47.9953 9.50737 47.9636 9.54334 47.9275 9.54804C47.6298 9.58703 47.6295 9.58535 47.6298 9.8801C47.6298 9.96917 47.6298 10.0586 47.6319 10.1476C47.637 10.3668 47.6814 10.4081 47.902 10.4199C47.9457 10.4222 47.9881 10.4505 48.0307 10.4669C47.9936 10.4921 47.9595 10.5304 47.9185 10.5402C47.6525 10.6034 47.4853 10.4743 47.4804 10.2058C47.478 10.072 47.489 9.93724 47.476 9.80482C47.4653 9.69659 47.4274 9.59106 47.3982 9.47007Z" fill="black"/>
</g>
<defs>
<clipPath id="clip0">
<rect width="44" height="11" fill="white" transform="translate(6 9)"/>
</clipPath>
</defs>
</svg>
