<svg width="56" height="28" viewBox="0 0 56 28" fill="none" xmlns="http://www.w3.org/2000/svg">
<rect width="56" height="28" fill="#F4F4F4"/>
<path d="M33.4005 17.229C33.3028 17.6646 33.2146 18.0506 33.1301 18.4371C33.0575 18.7694 32.9859 19.1023 32.9204 19.4362C32.8644 19.7215 32.8065 20.0078 32.7705 20.2962C32.742 20.5274 32.6333 20.6134 32.4236 20.6093C32.0683 20.6022 31.7124 20.6007 31.3575 20.6098C31.1587 20.6149 31.0743 20.5339 31.1175 20.3235C31.2218 19.8186 31.3305 19.3153 31.433 18.8099C31.4856 18.5494 31.5241 18.2858 31.5772 18.0253C31.6897 17.4708 31.8154 16.9194 31.9198 16.3635C32.0194 15.8328 32.0901 15.2956 32.1907 14.7649C32.2804 14.2919 32.399 13.8245 32.4948 13.3525C32.5579 13.0424 32.6011 12.7277 32.658 12.4161C32.7026 12.1703 32.7434 11.9219 32.8113 11.6826C32.8284 11.6219 32.9399 11.5561 33.0096 11.5541C33.42 11.5425 33.8309 11.549 34.2418 11.549C34.3988 11.549 34.4301 11.6285 34.3817 11.7772C34.3476 11.8829 34.3314 11.9957 34.3542 12.1399C34.5037 12.0362 34.6574 11.9386 34.8026 11.8283C35.5698 11.247 36.8247 11.1878 37.572 11.9431C37.8486 12.2229 38.0289 12.5896 38.1294 13.0176C38.2908 13.7046 38.2817 14.387 38.2044 15.0684C38.1138 15.8707 37.7802 16.5714 37.2873 17.1901C36.893 17.6848 36.4072 18.0561 35.825 18.1856C35.3268 18.2964 34.8007 18.3222 34.3001 18.0582C33.9424 17.87 33.6511 17.6186 33.4005 17.229ZM33.8323 15.2961C33.7801 15.6942 33.8883 16.0564 34.0861 16.3706C34.2878 16.6908 34.5611 16.9483 34.9563 16.9634C35.4882 16.9837 36.0025 16.541 36.2022 16.0559C36.3887 15.6031 36.5424 15.1266 36.6449 14.645C36.7621 14.0926 36.6852 13.5417 36.364 13.0687C35.9545 12.4657 34.9848 12.5411 34.5473 13.1006C34.0491 13.738 33.8911 14.5003 33.8323 15.2961Z" fill="black"/>
<path d="M44.7504 11.5569C45.2714 11.5569 45.7667 11.5513 46.2611 11.5655C46.3076 11.567 46.3825 11.6854 46.3916 11.7572C46.4518 12.255 46.494 12.7548 46.55 13.2536C46.625 13.9249 46.7066 14.5947 46.7854 15.2655C46.8304 15.6505 46.8755 16.0349 46.96 16.4366C47.0871 16.1402 47.2095 15.8412 47.3419 15.5473C47.5544 15.0748 47.7675 14.6028 47.9909 14.1359C48.3326 13.4226 48.6799 12.7123 49.0319 12.0051C49.1719 11.7244 49.3204 11.478 49.7033 11.5372C50.0283 11.5873 50.3656 11.5463 50.6972 11.5483C50.7812 11.5488 50.8657 11.561 50.9999 11.5721C50.749 12.0577 50.5174 12.5054 50.2859 12.9526C49.7759 13.9381 49.271 14.9266 48.7534 15.9075C48.4635 16.4568 48.1451 16.9895 47.8519 17.5374C47.4819 18.2289 47.1217 18.9265 46.7612 19.6236C46.4575 20.211 45.9925 20.601 45.3886 20.7234C45.046 20.7932 44.6736 20.6991 44.3153 20.6744C44.2375 20.6688 44.1607 20.6425 44.0833 20.6278C43.8347 20.5798 43.774 20.4922 43.811 20.2317C43.8485 19.9676 43.8898 19.7036 43.9239 19.439C43.9434 19.2882 44.0069 19.2255 44.1483 19.2867C44.6228 19.4926 45.1518 19.1906 45.4483 18.7566C45.7971 18.2466 45.7425 17.718 45.612 17.1631C45.5494 16.8965 45.5081 16.6233 45.4678 16.3516C45.4189 16.0223 45.3886 15.6899 45.3368 15.3616C45.2301 14.6878 45.1101 14.016 45.0038 13.3416C44.9492 12.9956 44.916 12.6461 44.8681 12.2985C44.8358 12.0684 44.7955 11.8397 44.7504 11.5569Z" fill="black"/>
<path d="M41.714 11.417C42.3664 11.3644 42.9562 11.4671 43.4449 11.9118C43.6 12.0529 43.7376 12.2401 43.8249 12.4354C43.9867 12.7981 44.0911 13.1739 43.9663 13.5958C43.8752 13.9034 43.8524 14.2348 43.8021 14.556C43.7476 14.9025 43.7096 15.2526 43.6403 15.5956C43.497 16.3018 43.3827 17.0075 43.4505 17.7354C43.4842 18.0951 43.4738 18.0966 43.1241 18.0976C42.8243 18.0982 42.5235 18.0875 42.2241 18.1012C42.0006 18.1113 41.873 18.042 41.8924 17.7795C41.8967 17.7218 41.8934 17.6591 41.8772 17.6044C41.8383 17.4709 41.7629 17.4238 41.6533 17.5306C41.3682 17.8078 41.0512 18.0268 40.6778 18.1447C39.6967 18.4543 38.724 18.088 38.3663 17.0019C38.0508 16.0443 38.4559 14.9268 39.3209 14.509C39.7365 14.3076 40.2285 14.2788 40.6897 14.1923C41.2059 14.0951 41.7259 14.0218 42.244 13.9353C42.2796 13.9292 42.3379 13.9024 42.3417 13.8781C42.3854 13.5812 42.5287 13.2751 42.3574 12.9858C42.2383 12.7844 42.0623 12.6493 41.8094 12.6655C41.5148 12.6842 41.2035 12.6013 40.9449 12.8198C40.8515 12.8987 40.7879 13.0161 40.7011 13.1056C40.6218 13.1876 40.5279 13.3222 40.4449 13.3181C40.0302 13.2994 39.6169 13.2397 39.2032 13.1997C38.9921 13.1795 39.0262 13.0186 39.0808 12.9078C39.3418 12.3747 39.7099 11.935 40.2295 11.6892C40.7053 11.4626 41.213 11.3401 41.714 11.417ZM40.6375 16.9979C40.7841 16.9483 40.934 16.9078 41.0764 16.8476C41.4953 16.6696 41.8056 16.3807 41.9143 15.89C41.9536 15.7119 42.003 15.5354 42.0585 15.3619C42.1425 15.1013 42.1107 15.0351 41.8512 15.0937C41.3644 15.2035 40.8595 15.2015 40.3913 15.4357C40.0179 15.6224 39.8077 15.9269 39.8694 16.3549C39.9192 16.6984 40.2508 16.9655 40.6375 16.9979Z" fill="black"/>
<path d="M7.55326 12.3376C7.68706 12.2425 7.7867 12.1818 7.87589 12.1069C8.17385 11.8555 8.47418 11.6248 8.85042 11.5029C9.40791 11.3228 9.91748 11.4012 10.4019 11.7245C10.9869 12.115 11.2844 12.6861 11.3314 13.4161C11.3461 13.6478 11.4215 13.8805 11.4063 14.1082C11.3432 15.044 11.1824 15.9455 10.6614 16.7468C10.2733 17.3432 9.80171 17.8188 9.17353 18.0763C8.18666 18.4805 7.33122 18.1223 6.75143 17.1247C6.69165 17.2406 6.61621 17.3306 6.59724 17.4328C6.50092 17.9473 6.42358 18.4658 6.33154 18.9813C6.2542 19.4148 6.17212 19.8479 6.08008 20.2784C6.03216 20.5025 5.91781 20.6608 5.66446 20.6097C5.61891 20.6006 5.57004 20.6082 5.52259 20.6082C4.97507 20.6082 4.92715 20.5085 5.07233 19.9237C5.20755 19.3779 5.29058 18.8174 5.39923 18.2634C5.43909 18.0596 5.48464 17.8567 5.52924 17.6534C5.63267 17.1829 5.73942 16.7134 5.83906 16.2425C5.88555 16.0239 5.91829 15.8018 5.95814 15.5818C6.08862 14.8614 6.21387 14.14 6.35147 13.4212C6.46107 12.85 6.5811 12.2809 6.70921 11.7143C6.72391 11.6496 6.81596 11.5651 6.87859 11.5585C7.08213 11.5383 7.28852 11.5515 7.49396 11.5489C7.62823 11.5474 7.68326 11.6177 7.66096 11.7543C7.63155 11.9243 7.59786 12.0932 7.55326 12.3376ZM10.372 14.0399C10.3725 13.5416 10.2728 13.1055 10.0888 12.8227C9.70539 12.2334 8.87984 12.0877 8.3067 12.5C7.92761 12.7726 7.66666 13.1419 7.47308 13.5775C7.22968 14.1238 7.01998 14.6773 7.03848 15.2985C7.04607 15.5423 7.02614 15.7887 7.04987 16.03C7.06884 16.2237 7.10111 16.4306 7.18414 16.6006C7.55184 17.3529 8.52732 17.5633 9.16357 17.0564C9.51277 16.7782 9.74572 16.4124 9.92981 15.9845C10.1955 15.3693 10.3905 14.7491 10.372 14.0399Z" fill="black"/>
<path d="M28.9971 15.0901C28.3339 15.0907 27.6701 15.0993 27.0068 15.0856C26.7738 15.081 26.7202 15.1741 26.7098 15.4083C26.679 16.1039 26.8275 16.7095 27.402 17.1132C27.7156 17.3332 28.0663 17.3818 28.4368 17.2932C29.1248 17.1298 29.585 16.6644 29.9389 16.0452C29.9679 15.9947 30.0514 15.9547 30.1107 15.9537C30.3474 15.9481 30.5842 15.9592 30.8214 15.9653C30.9794 15.9694 31.0084 16.0473 30.9462 16.1955C30.6943 16.7965 30.2758 17.2558 29.8042 17.6534C29.52 17.8932 29.1864 18.0718 28.8159 18.1264C28.5146 18.1709 28.2076 18.2443 27.9092 18.2205C27.143 18.1598 26.4721 17.8371 26.0716 17.1147C25.6655 16.3817 25.5844 15.5798 25.7414 14.7239C25.8444 14.1644 25.9991 13.6423 26.2591 13.1567C26.6253 12.4727 27.1221 11.936 27.8357 11.6512C28.2385 11.4903 28.6427 11.3851 29.0759 11.4139C29.9854 11.4741 30.6914 11.8763 31.1104 12.7702C31.4316 13.4557 31.3827 14.1846 31.3243 14.9136C31.3087 15.1073 31.1583 15.0886 31.0349 15.0891C30.3555 15.0912 29.6761 15.0896 28.9971 15.0901ZM28.6759 14.2868C29.1727 14.2868 29.6699 14.2853 30.1667 14.2878C30.3019 14.2883 30.4224 14.2499 30.4025 14.085C30.3612 13.74 30.3674 13.3595 30.226 13.0626C29.8459 12.2618 29.2287 12.1257 28.4458 12.3442C27.6967 12.5537 27.2787 13.1855 26.984 13.9094C26.8796 14.1659 26.9669 14.2858 27.2317 14.2868C27.7137 14.2888 28.1948 14.2868 28.6759 14.2868Z" fill="black"/>
<path d="M17.4863 14.2042C17.4256 15.2989 17.1765 16.3228 16.462 17.1585C16.0525 17.6371 15.5491 17.969 14.9513 18.106C14.6543 18.1738 14.3449 18.2396 14.0451 18.2219C13.0255 18.1617 12.2217 17.6872 11.8355 16.6456C11.6937 16.2636 11.6794 15.8058 11.6908 15.3849C11.7274 14.0423 12.1577 12.8722 13.1835 12.031C13.4411 11.8195 13.7599 11.6617 14.074 11.5666C14.4156 11.4634 14.7843 11.4214 15.1411 11.4229C16.0629 11.4274 16.7424 11.905 17.2092 12.7377C17.3525 12.9926 17.4787 13.7398 17.4863 14.2042ZM12.7384 15.519C12.7384 15.6197 12.7375 15.7962 12.7384 15.9728C12.7403 16.3168 12.886 16.6046 13.0829 16.8545C13.5858 17.4939 14.4227 17.5121 15.0296 17.1434C15.5387 16.8343 15.8542 16.3562 16.0957 15.782C16.3846 15.094 16.4942 14.3934 16.414 13.6604C16.3291 12.8839 15.7911 12.2783 15.0021 12.2672C14.1803 12.2561 13.6276 12.7265 13.2338 13.4155C12.8841 14.0266 12.6834 14.7071 12.7384 15.519Z" fill="black"/>
<path d="M20.0305 18.2261C19.3795 18.2868 18.7831 18.045 18.2399 17.6929C17.8921 17.4678 17.6786 17.0782 17.5904 16.6356C17.5723 16.5456 17.5624 16.453 17.5353 16.366C17.4352 16.0468 17.5012 15.9162 17.82 15.8667C18.0069 15.8373 18.1981 15.8444 18.3874 15.8297C18.5469 15.8176 18.5402 15.9395 18.5464 16.0478C18.5692 16.451 18.6992 16.8066 19.0194 17.0337C19.2158 17.1728 19.4436 17.3003 19.6718 17.3403C20.0988 17.4142 20.54 17.4258 20.9457 17.2153C21.2318 17.0671 21.4448 16.8218 21.497 16.4818C21.5473 16.152 21.3708 15.8717 21.1284 15.7245C20.644 15.4306 20.1258 15.2004 19.6224 14.9424C19.1542 14.7026 18.6807 14.4492 18.479 13.8998C18.3969 13.6767 18.4406 13.403 18.4164 13.1536C18.3542 12.5208 18.9909 11.8581 19.4384 11.6477C19.9413 11.4109 20.4608 11.3674 20.9865 11.4266C21.9013 11.5303 22.6129 11.9679 22.8986 12.9599C23.002 13.3201 22.9868 13.5452 22.5479 13.5356C22.3752 13.532 22.1698 13.6069 22.0389 13.5305C21.9278 13.4658 21.9022 13.2341 21.8382 13.0768C21.6351 12.5754 21.2622 12.325 20.7659 12.2815C20.4447 12.2532 20.1183 12.2319 19.8217 12.4191C19.6172 12.5481 19.418 12.6918 19.3776 12.9614C19.3307 13.2771 19.3805 13.568 19.6827 13.7303C20.0566 13.9312 20.4342 14.1229 20.8091 14.3217C21.116 14.4841 21.4287 14.6369 21.7262 14.8175C22.8649 15.509 22.6751 17.2912 21.5554 17.8467C21.0743 18.0865 20.5842 18.2721 20.0305 18.2261Z" fill="black"/>
<path d="M25.5113 9.25C25.5289 9.36129 25.5521 9.41846 25.544 9.46955C25.4885 9.82265 25.4283 10.1753 25.3656 10.5268C25.3158 10.8036 25.2499 11.0777 25.2157 11.357C25.2091 11.4111 25.3097 11.5265 25.3699 11.5345C25.5568 11.5593 25.7481 11.5437 25.9374 11.5487C26.0213 11.5512 26.1048 11.5664 26.2163 11.5791C26.1523 11.8123 26.0854 12.0156 26.0427 12.2251C26.0095 12.3869 25.9222 12.4168 25.7879 12.4122C25.5829 12.4052 25.377 12.4133 25.1721 12.4107C25.0397 12.4087 24.9804 12.4689 24.9514 12.6121C24.8461 13.1331 24.7175 13.6486 24.6146 14.1697C24.5149 14.6745 24.4419 15.1855 24.3475 15.6913C24.2986 15.9524 24.227 16.2089 24.1686 16.4679C24.1159 16.7046 24.0348 16.9672 24.2317 17.1528C24.4039 17.3147 24.6279 17.3779 24.8675 17.2641C24.942 17.2287 25.0354 17.2398 25.1683 17.2242C25.1555 17.3602 25.1498 17.471 25.1327 17.5793C25.1222 17.644 25.0852 17.7047 25.0758 17.7695C25.0231 18.1226 24.9391 18.2 24.5942 18.2258C24.1871 18.2561 23.7976 18.2152 23.4337 17.9921C23.1941 17.8454 23.0489 17.6329 23.0503 17.3486C23.0517 17.0759 23.1025 16.8023 23.1423 16.5306C23.1784 16.2842 23.2273 16.0399 23.2733 15.795C23.3544 15.361 23.4332 14.927 23.52 14.4944C23.631 13.941 23.7454 13.3886 23.8654 12.8372C23.9428 12.4821 23.8953 12.4112 23.5475 12.4102C23.4688 12.4102 23.3829 12.4289 23.3127 12.4021C23.2538 12.3799 23.1756 12.3085 23.1703 12.2519C23.1571 12.1118 23.1627 11.963 23.1941 11.8264C23.2358 11.6448 23.3279 11.4996 23.5433 11.5472C23.5509 11.5487 23.5589 11.5472 23.567 11.5472C24.1169 11.5431 24.1188 11.5437 24.2232 10.9811C24.2749 10.7024 24.3143 10.4216 24.3674 10.1434C24.3807 10.0731 24.4082 9.98201 24.458 9.94761C24.7944 9.7144 25.1393 9.49434 25.5113 9.25Z" fill="black"/>
</svg>
