<svg width="608" height="111" viewBox="0 0 608 111" fill="none" xmlns="http://www.w3.org/2000/svg">
<path d="M8.448 32.488C8.448 28.904 9.088 25.64 10.368 22.76C11.648 19.944 13.376 17.704 15.424 16.104C17.472 14.504 19.84 13.48 22.528 13.032C25.216 12.584 27.84 12.712 30.528 13.48C33.152 14.248 35.712 15.784 38.272 18.024C40.832 20.264 42.944 23.144 44.672 26.6L44.416 15.464C44.288 15.464 43.584 15.208 42.304 14.696C41.024 14.248 39.808 13.8 38.528 13.416C37.248 13.032 35.968 12.712 34.624 12.456C31.296 11.816 28.096 11.624 24.896 11.816C21.696 12.072 18.688 12.84 15.872 14.12C12.992 15.464 10.496 17.064 8.32 18.984C6.144 20.904 4.48 23.272 3.2 26.088C1.92 28.904 1.28 31.912 1.28 35.048C1.28 41.32 3.712 46.632 8.576 51.048C13.44 55.528 19.392 57.768 26.368 57.768C28.736 57.768 31.104 57.448 33.408 56.744C35.712 56.04 37.76 55.08 39.616 53.864C41.472 52.712 43.072 51.56 44.352 50.472C45.632 49.384 46.848 48.232 48 47.016L48.896 45.288C44.8 49.384 41.088 52.264 37.824 53.928C34.56 55.592 30.72 56.36 26.368 56.36C22.976 56.36 19.904 55.272 17.088 52.968C14.272 50.728 12.16 47.784 10.688 44.136C9.152 40.552 8.448 36.648 8.448 32.488ZM69.2135 24.36C64.6055 24.36 60.5095 26.088 56.8615 29.544C53.2135 33 51.3575 36.904 51.3575 41.384C51.2295 45.928 52.9575 49.832 56.4775 53.096C59.9335 56.36 63.9655 57.96 68.5735 57.96C73.1815 57.96 77.2775 56.36 80.9255 53.096C84.5095 49.832 86.3655 45.928 86.4295 41.384C86.4295 36.904 84.7015 32.936 81.2455 29.48C77.7895 26.088 73.7575 24.36 69.2135 24.36ZM69.8535 56.68C66.5895 56.68 63.7095 55.336 61.2775 52.584C58.7815 49.832 57.3735 46.12 57.0535 41.384C56.6695 36.392 57.5015 32.488 59.6135 29.672C61.6615 26.856 64.4135 25.384 67.7415 25.384C71.1335 25.384 74.0775 26.792 76.5735 29.48C79.0695 32.168 80.4135 36.136 80.5415 41.384C80.5415 46.44 79.5815 50.28 77.6615 52.84C75.7415 55.4 73.1175 56.68 69.8535 56.68ZM90.487 43.752L90.103 43.624L90.231 56.68C93.303 57.128 95.607 57.448 97.207 57.576C98.807 57.704 100.791 57.832 103.159 57.832C105.463 57.896 107.447 57.64 109.047 57.064C110.647 56.552 112.055 55.72 113.271 54.632C113.975 53.992 114.679 52.904 115.383 51.496C116.087 50.088 116.407 48.552 116.279 46.888C116.151 44.968 115.255 43.368 113.591 42.024C111.927 40.744 109.943 39.72 107.639 38.952C105.335 38.248 103.031 37.544 100.727 36.904C98.423 36.264 96.439 35.368 94.775 34.344C93.111 33.32 92.279 31.976 92.151 30.44C92.023 29.48 92.215 28.648 92.599 27.944C92.983 27.304 93.623 26.792 94.455 26.408C95.287 26.024 95.991 25.768 96.631 25.64C97.271 25.512 97.975 25.32 98.871 25.192C101.431 24.936 103.671 25.128 105.655 25.704C107.575 26.28 109.175 27.112 110.327 28.264C111.479 29.416 112.311 30.696 112.951 31.976C113.591 33.256 113.975 34.664 114.231 36.072H114.615V26.472C107.511 23.912 101.367 23.4 96.247 24.872C91.127 26.344 88.759 29.48 89.207 34.216C89.335 36.008 90.231 37.608 91.895 38.952C93.559 40.296 95.479 41.384 97.783 42.152C100.087 42.984 102.327 43.752 104.631 44.52C106.871 45.288 108.791 46.184 110.391 47.208C111.991 48.232 112.823 49.384 112.887 50.664C112.887 51.304 112.759 51.88 112.631 52.392C111.863 54.696 109.943 56.168 106.871 56.808C103.287 57.576 99.959 57.064 96.759 55.208C92.535 52.84 90.487 49 90.487 43.752ZM126.148 25.448L120.9 31.912L130.372 28.392C134.98 26.664 138.692 26.216 141.444 26.984C144.196 27.752 145.54 29.992 145.476 33.704C145.476 33.96 145.284 34.28 144.964 34.536C144.644 34.856 144.26 35.112 143.812 35.368C143.3 35.624 142.724 35.944 142.02 36.2C141.316 36.456 140.612 36.712 139.972 36.904C139.332 37.16 138.564 37.352 137.796 37.608C137.028 37.864 136.324 38.056 135.748 38.184C135.172 38.312 134.596 38.44 134.02 38.568L132.868 38.824C132.676 38.888 132.548 38.952 132.42 38.952C126.148 40.232 122.052 42.664 120.004 46.248C118.468 48.936 118.468 51.496 120.068 53.8C121.668 56.296 124.356 57.512 128.196 57.512C130.564 57.512 132.932 56.744 135.3 55.144C139.14 52.584 142.532 48.36 145.348 42.472L145.412 42.28L145.284 46.376V51.368C145.412 53.8 146.052 55.336 147.332 55.976C148.612 56.68 150.979 57 154.436 57C151.876 56.488 150.596 53.224 150.596 47.272V46.376C150.532 43.944 150.532 40.808 150.532 37.096C150.532 35.304 149.956 33.64 148.932 31.976C147.908 30.312 146.5 28.968 144.708 27.816C142.916 26.728 140.996 25.832 138.948 25.192C136.836 24.552 134.66 24.232 132.356 24.232C130.052 24.296 128.004 24.68 126.148 25.448ZM124.42 49.512C123.908 48.616 123.588 47.72 123.588 46.888C123.524 46.056 123.652 45.352 123.908 44.712C124.164 44.136 124.548 43.56 125.124 43.048C125.7 42.536 126.276 42.088 126.916 41.768C127.492 41.448 128.196 41.128 128.964 40.872C129.732 40.616 130.372 40.36 130.884 40.232L132.484 39.848C132.996 39.72 133.316 39.656 133.38 39.656C135.428 39.208 137.22 38.76 138.82 38.248C140.42 37.8 141.636 37.416 142.404 37.032C143.172 36.648 143.812 36.328 144.324 36.008C144.836 35.752 145.156 35.496 145.284 35.368L145.476 35.24L145.412 37.16C145.284 39.976 143.876 43.048 141.124 46.44C138.308 49.832 135.428 52.008 132.356 52.968C129.284 53.992 126.595 52.84 124.42 49.512ZM170.742 36.712C170.23 38.504 169.91 40.36 169.91 42.28C169.91 44.2 170.294 46.056 171.062 47.912C171.83 49.768 172.79 51.432 173.942 52.84C175.094 54.312 176.566 55.464 178.422 56.36C180.278 57.256 182.262 57.704 184.438 57.704C189.942 57.704 194.23 55.592 197.302 51.368C197.75 55.144 200.822 57 206.454 57C203.894 56.488 202.614 53.224 202.614 47.272V5.416L197.622 10.088L197.43 26.92C194.614 25.384 191.926 24.488 189.302 24.168C186.614 23.912 184.31 24.104 182.39 24.808C180.406 25.576 178.614 26.6 176.95 27.944C175.286 29.288 174.006 30.696 172.982 32.168C171.958 33.704 171.254 35.176 170.742 36.712ZM177.078 30.248C178.806 28.072 180.982 26.792 183.542 26.472C186.102 26.216 188.598 26.664 191.03 27.816C193.462 29.032 195.574 30.696 197.43 32.744L197.238 49.704V50.216C194.934 53.416 191.99 54.952 188.534 54.952C185.462 54.952 182.838 53.992 180.534 52.072C178.23 50.152 176.566 47.912 175.606 45.288C174.646 42.664 174.262 39.912 174.454 37.096C174.646 34.28 175.542 31.976 177.078 30.248ZM209.742 15.528C209.742 16.488 210.062 17.256 210.702 17.896C211.342 18.536 212.11 18.856 213.07 18.856C213.966 18.856 214.798 18.536 215.438 17.896C216.078 17.256 216.462 16.488 216.462 15.528C216.462 14.632 216.078 13.8 215.438 13.16C214.798 12.52 213.966 12.136 213.07 12.136C212.11 12.136 211.342 12.52 210.702 13.16C210.062 13.8 209.742 14.632 209.742 15.528ZM215.566 53.16V25H210.318V53.16L210.062 57H215.822L215.566 53.16ZM250.743 32.872V27.112C248.247 25.704 245.815 24.744 243.447 24.296C241.079 23.912 238.327 23.976 235.255 24.616C233.335 25.128 231.543 25.96 229.879 26.984C228.215 28.008 226.871 29.032 225.975 30.056C225.015 31.08 224.183 32.232 223.415 33.384C222.647 34.6 222.199 35.432 222.007 35.88C221.815 36.328 221.687 36.648 221.623 36.904C221.047 38.696 220.727 40.552 220.727 42.472C220.663 44.392 221.047 46.248 221.879 48.104C222.711 49.96 223.735 51.624 225.015 53.032C226.231 54.504 227.831 55.656 229.815 56.552C231.735 57.448 233.911 57.896 236.215 57.896C240.823 57.896 244.919 56.744 248.631 54.44C249.655 53.864 250.551 53.224 251.382 52.456C252.151 51.752 252.791 51.112 253.239 50.536C253.687 50.024 254.071 49.448 254.391 48.808C254.711 48.232 254.903 47.848 254.967 47.656L255.159 47.144H255.031C253.623 49.704 251.575 51.752 249.015 53.16C246.455 54.568 244.087 55.272 241.911 55.272C239.031 55.272 236.407 54.632 234.103 53.352C231.799 52.072 230.007 50.344 228.727 48.296C227.447 46.248 226.487 44.008 225.975 41.64C225.399 39.336 225.335 37.032 225.847 34.728C226.359 32.488 227.319 30.632 228.727 29.096C230.263 27.304 232.375 26.408 235.127 26.536C237.878 26.664 240.631 27.368 243.447 28.52C246.263 29.736 248.695 31.208 250.743 32.872ZM272.151 24.36C267.543 24.36 263.447 26.088 259.799 29.544C256.151 33 254.295 36.904 254.295 41.384C254.167 45.928 255.895 49.832 259.415 53.096C262.871 56.36 266.903 57.96 271.511 57.96C276.119 57.96 280.215 56.36 283.863 53.096C287.447 49.832 289.303 45.928 289.367 41.384C289.367 36.904 287.639 32.936 284.183 29.48C280.727 26.088 276.695 24.36 272.151 24.36ZM272.791 56.68C269.527 56.68 266.647 55.336 264.215 52.584C261.719 49.832 260.311 46.12 259.991 41.384C259.607 36.392 260.439 32.488 262.551 29.672C264.599 26.856 267.351 25.384 270.679 25.384C274.071 25.384 277.015 26.792 279.511 29.48C282.007 32.168 283.351 36.136 283.479 41.384C283.479 46.44 282.519 50.28 280.599 52.84C278.679 55.4 276.055 56.68 272.791 56.68ZM299.148 57H293.964V25H299.34L299.276 31.144C300.94 29.096 302.988 27.496 305.292 26.28C307.596 25.128 309.9 24.424 312.14 24.296C314.316 24.168 316.428 24.488 318.348 25.128C320.268 25.768 321.868 26.984 323.084 28.712C324.236 30.44 324.876 32.488 324.94 34.92V57H319.756V36.072C319.756 33.256 319.052 31.016 317.708 29.288C316.3 27.56 314.636 26.536 312.652 26.152C310.604 25.832 308.428 26.152 305.996 27.176C303.564 28.2 301.324 29.8 299.276 32.04L299.148 57ZM347.151 24.36C342.543 24.36 338.447 26.088 334.799 29.544C331.151 33 329.295 36.904 329.295 41.384C329.167 45.928 330.895 49.832 334.415 53.096C337.871 56.36 341.903 57.96 346.511 57.96C351.119 57.96 355.215 56.36 358.863 53.096C362.447 49.832 364.303 45.928 364.367 41.384C364.367 36.904 362.639 32.936 359.183 29.48C355.727 26.088 351.695 24.36 347.151 24.36ZM347.791 56.68C344.527 56.68 341.647 55.336 339.215 52.584C336.719 49.832 335.311 46.12 334.991 41.384C334.607 36.392 335.439 32.488 337.551 29.672C339.599 26.856 342.351 25.384 345.679 25.384C349.071 25.384 352.015 26.792 354.511 29.48C357.007 32.168 358.351 36.136 358.479 41.384C358.479 46.44 357.519 50.28 355.599 52.84C353.679 55.4 351.055 56.68 347.791 56.68Z" fill="black"/>
<path d="M166.576 58.416L161.328 63.088V104.368C161.456 106.8 162.096 108.336 163.376 108.976C164.656 109.68 166.96 110 170.416 110C167.984 109.488 166.704 106.288 166.576 100.272C166.192 86.32 166.192 72.368 166.576 58.416ZM206.205 100.144H205.821C204.413 102.768 202.429 104.816 199.997 106.224C197.501 107.632 195.197 108.336 193.149 108.336C190.269 108.336 187.708 107.696 185.469 106.352C183.165 105.008 181.437 103.28 180.22 101.232C178.941 99.184 178.109 97.008 177.597 94.64C177.085 92.272 177.085 90.032 177.533 87.856H196.093C200.957 87.728 203.453 86.192 203.453 83.248C203.453 83.056 203.389 82.864 203.389 82.608C203.325 82.416 203.197 82.096 203.005 81.584C202.749 81.072 202.493 80.624 202.109 80.24C201.725 79.856 201.149 79.408 200.381 78.96C199.549 78.512 198.589 78.128 197.565 77.872C193.725 76.976 190.205 76.912 187.005 77.616C185.085 78.128 183.229 78.96 181.565 79.984C179.901 81.008 178.557 82.032 177.597 83.056C176.637 84.08 175.805 85.232 175.036 86.384C174.269 87.6 173.757 88.432 173.565 88.88C173.309 89.328 173.181 89.648 173.117 89.904C172.541 91.696 172.221 93.552 172.221 95.472C172.221 97.392 172.605 99.248 173.501 101.104C174.333 102.96 175.357 104.624 176.637 106.032C177.917 107.504 179.517 108.656 181.501 109.552C183.485 110.448 185.661 110.896 187.965 110.896C192.189 110.896 196.157 109.744 199.741 107.44C201.277 106.544 202.621 105.392 203.708 104.112C204.797 102.832 205.437 101.936 205.693 101.424C205.949 100.912 206.076 100.464 206.205 100.144ZM179.965 82.736C181.501 80.944 183.741 79.728 186.812 79.088C189.885 78.512 192.637 78.896 195.069 80.304C196.029 80.944 196.797 81.648 197.309 82.544C197.821 83.44 197.949 84.272 197.629 85.04C197.245 85.808 196.413 86.256 195.069 86.32L191.741 86.512L177.725 86.96C178.109 85.36 178.877 83.952 179.965 82.736ZM260.795 104.304L263.547 99.696H263.163L260.667 103.6C260.027 104.56 259.451 105.392 258.811 106.16C256.763 108.72 255.163 109.872 254.011 109.616C252.603 109.36 252.795 106.928 254.715 102.32L259.899 87.92C259.963 87.728 260.027 87.536 260.091 87.344C261.243 83.632 260.539 80.88 258.107 78.96C255.675 77.168 252.475 76.848 248.507 78C243.131 79.664 238.458 83.44 234.363 89.392L235.707 85.616C236.475 83.184 236.475 81.136 235.707 79.472C234.811 77.68 233.403 76.976 231.483 77.232C228.859 77.616 226.555 79.728 224.507 83.504L221.755 88.112H222.139L224.635 84.208C225.275 83.248 225.915 82.352 226.555 81.52C228.603 79.024 230.203 77.936 231.291 78.192C232.571 78.576 232.315 81.008 230.523 85.488L221.562 110H226.747L234.043 90.288C237.627 84.976 241.531 81.52 245.627 79.92C248.955 78.64 251.579 78.896 253.499 80.624C255.419 82.48 255.739 85.296 254.331 89.072L249.531 102.192C248.699 104.624 248.699 106.672 249.531 108.336C250.363 110.128 251.771 110.832 253.755 110.576C256.315 110.192 258.683 108.144 260.795 104.304ZM286.088 77.36C281.48 77.36 276.744 79.088 271.88 82.544C267.016 86 263.752 89.904 262.088 94.384C260.296 98.928 260.616 102.832 262.92 106.096C265.224 109.36 268.616 110.96 273.224 110.96C277.832 110.96 282.504 109.36 287.304 106.096C292.104 102.832 295.368 98.928 297.16 94.384C298.824 89.904 298.504 85.936 296.264 82.48C293.96 79.088 290.568 77.36 286.088 77.36ZM275.016 109.68C271.752 109.68 269.384 108.336 267.912 105.584C266.44 102.832 266.376 99.12 267.784 94.384C269.192 89.392 271.432 85.488 274.568 82.672C277.704 79.856 280.968 78.384 284.296 78.384C286.472 78.384 288.264 78.96 289.672 80.048C291.08 81.2 292.04 82.928 292.488 85.296C292.936 87.664 292.552 90.672 291.272 94.384C289.416 99.44 287.048 103.28 284.232 105.84C281.352 108.4 278.28 109.68 275.016 109.68ZM319.338 103.472C318.186 105.648 316.97 107.248 315.69 108.208C314.41 109.168 313.13 109.552 311.978 109.424C310.826 109.296 309.61 108.912 308.458 108.336C307.242 107.824 306.09 107.184 305.002 106.48C303.85 105.84 302.826 105.328 301.866 104.944C300.906 104.56 300.01 104.688 299.114 105.2C298.218 105.712 297.514 106.8 296.938 108.4C299.498 109.36 301.802 110 303.85 110.384C305.898 110.768 308.202 110.768 310.634 110.384C313.066 110 315.37 109.104 317.482 107.632C318.442 106.992 319.53 105.904 320.746 104.496C321.962 103.088 322.794 101.552 323.306 99.888C323.818 97.968 323.498 96.496 322.346 95.344C321.13 94.192 319.466 93.36 317.418 92.848C315.37 92.336 313.322 91.76 311.274 91.184C309.226 90.672 307.562 89.776 306.282 88.496C305.002 87.28 304.682 85.68 305.194 83.632C305.898 81.584 306.858 80.112 308.138 79.28C309.354 78.512 310.634 78.256 311.978 78.576C313.258 78.896 314.666 79.28 316.202 79.792C317.738 80.304 319.146 80.816 320.426 81.264C321.706 81.776 322.858 81.776 324.01 81.328C325.098 80.88 325.93 79.856 326.506 78.192C323.882 77.296 321.194 76.784 318.442 76.72C315.69 76.656 313.13 76.976 310.762 77.68C308.394 78.384 306.282 79.536 304.49 81.2C302.698 82.864 301.482 84.912 300.842 87.216C300.33 89.008 300.458 90.48 301.354 91.632C302.186 92.784 303.402 93.616 305.002 94.128C306.602 94.64 308.33 95.152 310.25 95.664C312.106 96.176 313.833 96.688 315.434 97.136C317.034 97.648 318.25 98.416 319.018 99.44C319.786 100.528 319.85 101.872 319.338 103.472ZM350.372 100.528H349.796C347.556 102.768 345.252 104.624 342.82 106.032C338.724 108.464 335.46 109.36 333.092 108.72C330.916 108.144 330.404 106.48 331.428 103.728L339.684 81.712H349.732L354.276 78H341.028L343.844 70.256L330.34 81.712H334.5L327.14 101.872C326.116 104.688 326.244 106.864 327.524 108.464C329.06 110.448 331.684 111.024 335.396 110.192C340.452 109.168 345.444 105.904 350.372 100.528ZM365.143 85.872C365.911 83.44 365.911 81.392 365.143 79.728C364.247 78 362.839 77.232 360.919 77.488C358.295 77.872 355.927 79.984 353.879 83.76L351.127 88.368H351.511L354.007 84.464C354.583 83.568 355.223 82.672 355.863 81.904C357.911 79.344 359.51 78.192 360.663 78.448C362.071 78.704 361.815 81.136 359.959 85.744L359.447 87.216L352.663 106.16L351.062 110H356.759L357.975 106.16L362.519 93.872C362.519 93.872 362.647 93.424 362.967 92.528L363.863 89.904C364.119 89.008 364.567 87.984 365.143 86.832C365.719 85.68 366.295 84.656 366.935 83.76C367.575 82.864 368.279 82.16 369.175 81.52C370.071 80.944 370.967 80.624 371.863 80.624C372.887 80.624 373.975 80.752 375.191 80.88C376.343 81.008 377.239 81.136 377.879 81.2C378.519 81.264 379.095 81.264 379.735 81.2C380.375 81.136 380.823 80.944 381.207 80.56C381.591 80.176 381.911 79.664 382.167 78.896C382.423 78.256 382.039 77.744 381.015 77.424C379.031 76.848 376.471 77.104 373.399 78.192C369.047 79.792 366.295 82.352 365.143 85.872ZM406.45 77.872C402.93 76.976 399.474 76.912 396.018 77.616C393.906 78.128 391.794 78.96 389.746 79.984C387.698 81.008 385.97 82.032 384.69 83.056C383.345 84.08 382.066 85.232 380.85 86.384C379.634 87.6 378.866 88.432 378.482 88.88C378.098 89.328 377.842 89.648 377.65 89.904C375.474 92.848 374.194 95.984 373.938 99.184C373.617 102.448 374.45 105.2 376.37 107.504C378.29 109.808 381.106 110.896 384.882 110.896C389.106 110.896 393.458 109.744 397.874 107.44C399.794 106.544 401.522 105.392 403.122 104.112C404.658 102.832 405.682 101.936 406.066 101.424C406.45 100.912 406.77 100.464 407.026 100.144H406.642C404.274 102.768 401.586 104.816 398.578 106.224C395.57 107.632 393.01 108.336 390.962 108.336C387.186 108.336 384.37 107.248 382.578 104.944C380.722 102.704 379.89 100.016 380.082 96.944C380.274 93.872 381.17 90.8 382.834 87.856H401.394C406.322 87.728 409.33 86.192 410.418 83.248C410.482 83.056 410.546 82.864 410.61 82.608C410.61 82.416 410.61 82.096 410.61 81.584C410.546 81.072 410.418 80.624 410.162 80.24C409.906 79.856 409.522 79.408 408.882 78.96C408.242 78.512 407.41 78.128 406.45 77.872ZM400.882 86.32L397.49 86.512L383.345 86.96C384.37 85.36 385.586 83.952 387.122 82.736C389.298 80.944 391.986 79.728 395.314 79.088C398.578 78.512 401.202 78.896 403.122 80.304C403.826 80.944 404.274 81.648 404.53 82.544C404.722 83.44 404.53 84.272 403.89 85.04C403.25 85.808 402.29 86.256 400.882 86.32ZM457.118 85.872V80.112C454.622 78.704 452.19 77.744 449.822 77.296C447.454 76.912 444.702 76.976 441.63 77.616C439.71 78.128 437.918 78.96 436.254 79.984C434.59 81.008 433.246 82.032 432.35 83.056C431.39 84.08 430.558 85.232 429.79 86.384C429.022 87.6 428.574 88.432 428.382 88.88C428.19 89.328 428.062 89.648 427.998 89.904C427.422 91.696 427.102 93.552 427.102 95.472C427.038 97.392 427.422 99.248 428.254 101.104C429.086 102.96 430.11 104.624 431.39 106.032C432.606 107.504 434.206 108.656 436.19 109.552C438.11 110.448 440.286 110.896 442.59 110.896C447.198 110.896 451.294 109.744 455.006 107.44C456.03 106.864 456.926 106.224 457.757 105.456C458.526 104.752 459.166 104.112 459.614 103.536C460.062 103.024 460.446 102.448 460.766 101.808C461.086 101.232 461.278 100.848 461.342 100.656L461.534 100.144H461.406C459.998 102.704 457.95 104.752 455.39 106.16C452.83 107.568 450.462 108.272 448.286 108.272C445.406 108.272 442.782 107.632 440.478 106.352C438.174 105.072 436.382 103.344 435.102 101.296C433.822 99.248 432.862 97.008 432.35 94.64C431.774 92.336 431.71 90.032 432.222 87.728C432.734 85.488 433.694 83.632 435.102 82.096C436.638 80.304 438.75 79.408 441.502 79.536C444.253 79.664 447.006 80.368 449.822 81.52C452.638 82.736 455.07 84.208 457.118 85.872ZM470.514 58.416L465.266 63.088V104.368C465.394 106.8 466.034 108.336 467.314 108.976C468.594 109.68 470.898 110 474.354 110C471.922 109.488 470.642 106.288 470.514 100.272C470.13 86.32 470.13 72.368 470.514 58.416ZM478.492 68.528C478.492 69.488 478.812 70.256 479.452 70.896C480.092 71.536 480.86 71.856 481.82 71.856C482.716 71.856 483.548 71.536 484.188 70.896C484.828 70.256 485.212 69.488 485.212 68.528C485.212 67.632 484.828 66.8 484.188 66.16C483.548 65.52 482.716 65.136 481.82 65.136C480.86 65.136 480.092 65.52 479.452 66.16C478.812 66.8 478.492 67.632 478.492 68.528ZM484.316 106.16V78H479.068V106.16L478.812 110H484.572L484.316 106.16ZM523.892 100.144H523.508C522.1 102.768 520.116 104.816 517.684 106.224C515.188 107.632 512.884 108.336 510.836 108.336C507.956 108.336 505.396 107.696 503.156 106.352C500.852 105.008 499.124 103.28 497.908 101.232C496.628 99.184 495.796 97.008 495.284 94.64C494.772 92.272 494.772 90.032 495.22 87.856H513.78C518.644 87.728 521.14 86.192 521.14 83.248C521.14 83.056 521.076 82.864 521.076 82.608C521.012 82.416 520.884 82.096 520.692 81.584C520.436 81.072 520.18 80.624 519.796 80.24C519.412 79.856 518.836 79.408 518.068 78.96C517.236 78.512 516.276 78.128 515.252 77.872C511.412 76.976 507.892 76.912 504.692 77.616C502.772 78.128 500.916 78.96 499.252 79.984C497.588 81.008 496.244 82.032 495.284 83.056C494.324 84.08 493.492 85.232 492.724 86.384C491.956 87.6 491.444 88.432 491.252 88.88C490.996 89.328 490.868 89.648 490.804 89.904C490.228 91.696 489.908 93.552 489.908 95.472C489.908 97.392 490.292 99.248 491.188 101.104C492.02 102.96 493.044 104.624 494.324 106.032C495.604 107.504 497.204 108.656 499.188 109.552C501.172 110.448 503.348 110.896 505.652 110.896C509.876 110.896 513.844 109.744 517.428 107.44C518.964 106.544 520.308 105.392 521.396 104.112C522.484 102.832 523.124 101.936 523.38 101.424C523.636 100.912 523.764 100.464 523.892 100.144ZM497.652 82.736C499.188 80.944 501.428 79.728 504.5 79.088C507.572 78.512 510.324 78.896 512.756 80.304C513.716 80.944 514.484 81.648 514.996 82.544C515.508 83.44 515.636 84.272 515.316 85.04C514.932 85.808 514.1 86.256 512.756 86.32L509.428 86.512L495.412 86.96C495.796 85.36 496.564 83.952 497.652 82.736ZM532.273 110H527.089V78H532.465L532.401 84.144C534.065 82.096 536.113 80.496 538.417 79.28C540.721 78.128 543.025 77.424 545.265 77.296C547.441 77.168 549.553 77.488 551.473 78.128C553.393 78.768 554.993 79.984 556.209 81.712C557.361 83.44 558.001 85.488 558.065 87.92V110H552.881V89.072C552.881 86.256 552.177 84.016 550.833 82.288C549.425 80.56 547.761 79.536 545.777 79.152C543.729 78.832 541.553 79.152 539.121 80.176C536.689 81.2 534.449 82.8 532.401 85.04L532.273 110ZM587.732 100.528H587.156C585.62 102.896 583.892 104.816 581.908 106.288C578.772 108.592 575.956 109.36 573.46 108.72C571.092 108.144 569.94 106.48 570.004 103.728L570.196 81.712H580.244L583.444 78H570.196V70.256L560.852 81.712H565.012V101.872C565.012 103.984 565.524 105.776 566.612 107.248C567.635 108.72 569.044 109.68 570.772 110.128C572.5 110.576 574.356 110.64 576.34 110.256C578.324 109.872 580.372 108.848 582.42 107.12C584.468 105.456 586.196 103.216 587.732 100.528ZM589.492 68.528C589.492 69.488 589.812 70.256 590.452 70.896C591.092 71.536 591.86 71.856 592.82 71.856C593.716 71.856 594.548 71.536 595.188 70.896C595.828 70.256 596.212 69.488 596.212 68.528C596.212 67.632 595.828 66.8 595.188 66.16C594.548 65.52 593.716 65.136 592.82 65.136C591.86 65.136 591.092 65.52 590.452 66.16C589.812 66.8 589.492 67.632 589.492 68.528ZM595.316 106.16V78H590.068V106.16L589.812 110H595.572L595.316 106.16Z" fill="black"/>
</svg>
