<svg width="31" height="31" viewBox="0 0 31 31" fill="none" xmlns="http://www.w3.org/2000/svg">
<circle cx="15.9551" cy="15.0448" r="15.0448" fill="#F4F4F4"/>
<g clip-path="url(#clip0)">
<path d="M8 20.4114C9.45168 21.4138 11.1795 22 13.0335 22C19.1243 22 22.572 16.4612 22.3669 11.483C23.0059 10.9818 23.5661 10.3617 24.0079 9.65655C23.4162 9.93689 22.785 10.1238 22.1223 10.2087C22.8008 9.77549 23.3215 9.07888 23.5661 8.25485C22.9349 8.66262 22.2327 8.95146 21.4832 9.11286C20.8757 8.42476 20.0237 8 19.0769 8C16.9546 8 15.4004 10.1323 15.8817 12.341C13.1519 12.1966 10.7298 10.7864 9.11243 8.64563C8.25247 10.2342 8.67061 12.3155 10.1302 13.3689C9.59369 13.3434 9.08876 13.1905 8.63905 12.9272C8.6075 14.5583 9.69625 16.0959 11.2742 16.4357C10.8087 16.5716 10.3037 16.6056 9.79093 16.4951C10.2091 17.8968 11.4241 18.9248 12.86 18.9502C11.4793 20.1141 9.74359 20.6323 8 20.4114Z" fill="black"/>
</g>
<defs>
<clipPath id="clip0">
<rect width="16" height="14" fill="white" transform="translate(8 8)"/>
</clipPath>
</defs>
</svg>
