<svg width="56" height="28" viewBox="0 0 56 28" fill="none" xmlns="http://www.w3.org/2000/svg">
<rect width="56" height="28" fill="#F4F4F4"/>
<path d="M36.6179 20.499C36.6651 20.4035 36.6933 20.3419 36.725 20.2822C38.9635 16.0753 41.2033 11.8691 43.4379 7.6602C43.5201 7.50537 43.61 7.44107 43.793 7.4419C45.3632 7.44898 46.9335 7.44606 48.5037 7.44606C48.5801 7.44606 48.6564 7.44606 48.7626 7.44606C49.1064 11.7998 49.4396 16.1338 49.7801 20.4838C48.591 20.4838 47.421 20.4838 46.2242 20.4838C46.1711 19.8327 46.1184 19.1863 46.0643 18.5214C45.9927 18.5137 45.9322 18.5014 45.8716 18.5014C44.4712 18.5004 43.0707 18.5027 41.6703 18.4973C41.5256 18.4966 41.4564 18.5532 41.3972 18.6723C41.1274 19.214 40.8454 19.7496 40.5791 20.2928C40.5062 20.4414 40.4234 20.5051 40.245 20.5038C39.1134 20.4946 37.9816 20.4992 36.8501 20.4992C36.7865 20.499 36.7235 20.499 36.6179 20.499ZM45.8929 16.3086C45.847 15.7026 45.802 15.0906 45.7542 14.4788C45.7066 13.8711 45.6546 13.2636 45.6078 12.656C45.5611 12.0479 45.5267 11.4386 45.4545 10.8055C45.2999 10.9724 42.6717 16.1426 42.6402 16.3167C42.8174 16.3675 45.6883 16.3673 45.8929 16.3086Z" fill="black"/>
<path d="M10.0619 20.4966C10.0392 20.3187 10.0169 20.1693 10.0016 20.019C9.93894 19.4055 9.8799 18.7918 9.81703 18.1783C9.75353 17.558 9.68599 16.938 9.62206 16.3179C9.55877 15.7046 9.49867 15.0909 9.43581 14.4774C9.37209 13.857 9.30562 13.2371 9.24169 12.6167C9.1784 12.0034 9.12021 11.3895 9.05352 10.7765C9.00276 10.3084 8.97579 9.83479 8.87915 9.37571C8.67399 8.40178 8.03217 7.83927 7.04778 7.64532C6.79229 7.59496 6.53169 7.57102 6.26855 7.5344C6.20463 7.39081 6.20463 7.38644 6.26834 7.19144C8.28066 7.19207 10.3004 7.17854 12.3469 7.19019C12.502 8.53954 12.6268 9.8685 12.766 11.1958C12.9042 12.5148 13.0365 13.8344 13.1746 15.1531C13.1941 15.1571 13.2139 15.1608 13.2334 15.1648C13.2763 15.0975 13.3211 15.0316 13.3617 14.9631C14.5897 12.8975 15.817 10.8318 17.0448 8.76596C17.3294 8.2869 17.6174 7.80972 17.8975 7.32817C17.9578 7.22432 18.0313 7.18416 18.1509 7.18457C19.2617 7.18749 20.3724 7.18624 21.483 7.18686C21.5174 7.18686 21.5518 7.19352 21.5911 7.19768C21.6159 7.29071 21.5511 7.34606 21.515 7.40725C20.794 8.62362 20.0715 9.83895 19.3492 11.0543C17.5199 14.1317 15.6892 17.2084 13.8659 20.2893C13.7701 20.4512 13.6682 20.5022 13.4834 20.5008C12.4293 20.492 11.3753 20.4966 10.3212 20.4966C10.2443 20.4966 10.1672 20.4966 10.0619 20.4966Z" fill="black"/>
<path d="M25.4725 19.4187C26.0823 18.5669 26.6746 17.7393 27.2767 16.8979C27.3511 16.9466 27.4143 16.9868 27.4764 17.029C28.1834 17.5108 28.932 17.9091 29.7711 18.1239C30.5317 18.3187 31.2848 18.292 32.0209 18.0198C32.1965 17.9549 32.3677 17.8583 32.5151 17.7441C32.907 17.4402 33.0023 16.9739 32.7462 16.5539C32.6249 16.3552 32.4646 16.1679 32.2849 16.0176C31.9954 15.7754 31.6794 15.5627 31.3674 15.3475C30.818 14.969 30.2575 14.6059 29.7125 14.2213C29.3791 13.9859 29.0869 13.7019 28.8241 13.3903C28.1256 12.5621 27.9122 11.6252 28.1802 10.5859C28.6319 8.8345 29.7697 7.728 31.532 7.25623C33.2684 6.79132 34.9643 6.97113 36.606 7.67868C37.1707 7.92216 37.7064 8.21726 38.2063 8.57291C38.2675 8.6164 38.3255 8.66447 38.4024 8.72399C37.696 9.44924 37.004 10.1599 36.2993 10.8837C36.2273 10.836 36.1643 10.7955 36.1025 10.7528C35.6214 10.4215 35.1232 10.121 34.5827 9.88855C33.9718 9.62571 33.3559 9.64923 32.7407 9.84776C32.2518 10.0055 31.9504 10.3368 31.8569 10.844C31.8217 11.0348 31.8544 11.2106 31.9672 11.3569C32.0938 11.5213 32.2335 11.6853 32.3987 11.8098C32.7177 12.0499 33.0569 12.2649 33.391 12.4855C33.8952 12.8185 34.4077 13.1396 34.9059 13.4808C35.2542 13.7195 35.5662 14.0032 35.8478 14.3168C36.7513 15.3236 36.9435 16.4611 36.4707 17.7056C36.0519 18.8081 35.2782 19.627 34.2654 20.2334C33.3948 20.7545 32.4474 21.0101 31.4216 20.9999C29.9311 20.9853 28.4792 20.771 27.082 20.2476C26.6054 20.069 26.1475 19.8522 25.7159 19.5841C25.6399 19.5371 25.5673 19.4834 25.4725 19.4187Z" fill="black"/>
<path d="M27.2432 7.18131C25.7697 11.6356 24.3049 16.0636 22.8405 20.4898C21.6514 20.4898 20.486 20.4898 19.2922 20.4898C19.3173 20.4045 19.336 20.3337 19.3589 20.2642C20.4015 17.1096 21.4443 13.9551 22.4871 10.8007C22.8637 9.66151 23.2404 8.52213 23.617 7.38297C23.6868 7.17153 23.6871 7.1707 23.9084 7.1707C24.941 7.17028 25.9738 7.17028 27.0064 7.17091C27.0746 7.17112 27.1427 7.17674 27.2432 7.18131Z" fill="black"/>
</svg>
